<svg xmlns="http://www.w3.org/2000/svg" width="28" height="36" fill="none" viewBox="0 0 28 36">
  <path fill="#EBAE28" d="M27.074 23.144l-13.532-9.487-.002-.003-.001.001v-.001l-.003.002-12.65 8.889.777 1.107 11.876-8.344 13.535 9.49v-1.654z"/>
  <path fill="#EBAE28" d="M27.078 19.846l-13.536-9.492-.002-.002h-.001l-.003.002-12.65 8.889.777 1.109 11.876-8.347 13.539 9.493v-1.652z"/>
  <path fill="#0F2345" d="M13.54 16.963l-10.324 7.25c-.387-.946-.507-1.6-.507-3.234v-4.687l10.831-7.59 13.534 9.493V14.89L13.54 5.4 0 14.892v6.798a9.578 9.578 0 002.473 6.346l11.062-7.76 8.856 6.204-8.85 6.22-6.492-4.553-2.373 1.651L13.54 36l13.538-9.543-13.538-9.494z"/>
  <path fill="#0F2345" d="M.01 0L0 11.584l2.709-1.898V2.69h21.645v6.987l2.72 1.907L27.06 0H.01z"/>
</svg>