<svg xmlns="http://www.w3.org/2000/svg" width="97" height="36" fill="none" viewBox="0 0 97 36">
  <path fill="#EBAE28" d="M27.074 23.144l-13.532-9.487-.002-.003-.001.001v-.001l-.003.002-12.65 8.889.777 1.107 11.876-8.344 13.535 9.49v-1.654z"/>
  <path fill="#EBAE28" d="M27.078 19.846l-13.536-9.492-.002-.002h-.001l-.003.002-12.65 8.889.777 1.109 11.876-8.347 13.539 9.493v-1.652z"/>
  <path fill="#0F2345" d="M13.54 16.963l-10.324 7.25c-.387-.946-.507-1.6-.507-3.234v-4.687l10.831-7.59 13.534 9.493V14.89L13.54 5.4 0 14.892v6.798a9.578 9.578 0 002.473 6.346l11.062-7.76 8.856 6.204-8.85 6.22-6.492-4.553-2.373 1.651L13.54 36l13.538-9.543-13.538-9.494z"/>
  <path fill="#0F2345" d="M.01 0L0 11.584l2.709-1.898V2.69h21.645v6.987l2.72 1.907L27.06 0H.01zM35.523 2.85h1.655v9.304h3.828V2.85h1.654v9.305h3.828V2.85h1.655v10.87h-12.62V2.849zM53.366 7.185l4.185-4.336h2.173l-4.881 4.922 4.914 5.948H57.55l-3.86-4.824-.325.326v4.498H51.71V2.849h1.655v4.336zM72.607 8.292c0 3.194-2.385 5.639-5.63 5.639-3.243 0-5.628-2.445-5.628-5.639 0-3.194 2.385-5.638 5.629-5.638 3.244 0 5.63 2.444 5.63 5.638zm-1.655 0c0-2.411-1.655-4.1-3.974-4.1-2.32 0-3.975 1.696-3.975 4.107 0 2.41 1.656 4.107 3.975 4.107s3.974-1.696 3.974-4.107M82.791 2.85v10.869h-1.655V4.414h-3.601v5.409c0 1.239-.049 2.493-1.071 3.34a3.088 3.088 0 01-1.962.652 2.956 2.956 0 01-.73-.098v-1.53c.194.061.396.095.6.098.361.008.71-.126.974-.374.551-.541.54-1.623.54-2.57v-6.49l6.905-.002zM92.718 11.095h-4.623L86.91 13.72h-1.784l5.385-11.505 5.127 11.505h-1.79l-1.13-2.624zm-.665-1.564l-1.605-3.682-1.672 3.682h3.277zM35.28 26.005c.041.01.084.015.128.014.54 0 .813-.416.818-1.248v-7.446h8.853v10.818h-2.813v-8.436h-3.245v5.107a4.2 4.2 0 01-.243 1.463 3.358 3.358 0 01-.704 1.148 3.12 3.12 0 01-1.112.753 3.866 3.866 0 01-1.472.271h-.213l.002-2.444zM53.244 19.707H49.9v1.808h3.156v2.38H49.9v1.866h3.344v2.382h-6.157V17.325h6.157v2.382zM59.627 19.707v8.436h-2.812v-8.436h-2.31v-2.382h7.433v2.382h-2.311zM62.046 22.734a5.655 5.655 0 01.445-2.246 5.594 5.594 0 011.233-1.815 5.65 5.65 0 011.893-1.217 6.888 6.888 0 014.828 0 5.697 5.697 0 011.901 1.217c.53.517.953 1.134 1.242 1.815a5.889 5.889 0 010 4.491 5.554 5.554 0 01-1.242 1.815 5.698 5.698 0 01-1.901 1.217 6.868 6.868 0 01-4.828 0 5.65 5.65 0 01-1.893-1.217 5.594 5.594 0 01-1.233-1.815 5.652 5.652 0 01-.445-2.245zm2.941 0c-.004.41.08.816.245 1.19a2.975 2.975 0 001.623 1.572 3.178 3.178 0 002.339 0c.362-.144.694-.356.976-.624.283-.268.51-.59.667-.946a3.018 3.018 0 000-2.382 2.934 2.934 0 00-.667-.946 3.16 3.16 0 00-3.315-.625 2.987 2.987 0 00-1.623 1.571c-.166.375-.25.782-.245 1.192M75.232 17.324h4.192c.992 0 1.747.24 2.266.718.52.479.778 1.167.775 2.066a2.81 2.81 0 01-.295 1.352c-.214.377-.523.69-.896.91.358.063.705.181 1.026.352.267.145.501.343.689.582.177.23.306.493.38.774.078.3.116.609.114.919.008.465-.084.926-.27 1.352-.17.383-.425.721-.746.99-.344.28-.742.484-1.169.602a5.548 5.548 0 01-1.55.201h-4.516V17.324zm2.813 4.247h.522c.879 0 1.319-.349 1.32-1.046 0-.698-.44-1.049-1.32-1.052h-.517l-.005 2.098zm0 4.391h.616c.709 0 1.217-.09 1.522-.27a1.063 1.063 0 00.006-1.757c-.307-.181-.811-.27-1.521-.27h-.617l-.006 2.297zM84.3 22.734a5.659 5.659 0 01.445-2.246 5.594 5.594 0 011.233-1.815 5.65 5.65 0 011.894-1.217 6.888 6.888 0 014.827 0 5.695 5.695 0 011.901 1.217c.531.517.953 1.134 1.242 1.815a5.889 5.889 0 010 4.491 5.554 5.554 0 01-1.242 1.815 5.696 5.696 0 01-1.9 1.217 6.868 6.868 0 01-4.828 0 5.65 5.65 0 01-1.894-1.217 5.594 5.594 0 01-1.233-1.815 5.656 5.656 0 01-.445-2.245zm2.941 0c-.004.41.08.816.245 1.19a2.986 2.986 0 001.628 1.57 3.132 3.132 0 003.315-.623c.282-.269.508-.59.666-.947a3.018 3.018 0 000-2.381 2.96 2.96 0 00-.666-.947 3.157 3.157 0 00-3.315-.624 2.983 2.983 0 00-1.622 1.57c-.166.376-.25.782-.245 1.192"/>
</svg>