<?xml version="1.0" encoding="utf-8"?><svg xmlns="http://www.w3.org/2000/svg" xmlns:xlink="http://www.w3.org/1999/xlink"><symbol viewBox="0 0 24 24" id="add-icon" xmlns="http://www.w3.org/2000/svg"><g stroke-width="2" fill-rule="evenodd"><circle cx="12" cy="12" r="11"/><path d="M6.852 12h9.998m-5-4.998V17"/></g></symbol><symbol viewBox="0 0 16 16" id="arrow-left-icon" xmlns="http://www.w3.org/2000/svg"><path d="M9.671 15.61a1.264 1.264 0 000-1.886L4.928 9.338h9.63c.796 0 1.442-.598 1.442-1.334 0-.736-.646-1.333-1.442-1.333h-9.64l4.753-4.395a1.263 1.263 0 000-1.885 1.527 1.527 0 00-2.04 0L.422 7.057a1.264 1.264 0 000 1.886l7.21 6.666a1.525 1.525 0 002.039 0z"/></symbol><symbol viewBox="0 0 16 16" id="arrow-right-icon" xmlns="http://www.w3.org/2000/svg"><path d="M6.329 15.61a1.264 1.264 0 010-1.886l4.743-4.386h-9.63C.646 9.338 0 8.74 0 8.004c0-.736.646-1.333 1.442-1.333h9.64L6.329 2.276a1.263 1.263 0 010-1.885 1.527 1.527 0 012.04 0l7.209 6.666c.563.52.563 1.365 0 1.886l-7.21 6.666a1.525 1.525 0 01-2.039 0z"/></symbol><symbol viewBox="0 0 20 20" id="attach-icon" xmlns="http://www.w3.org/2000/svg"><path d="M2.298 12.309l1.477-1.477 6.648-6.647a3.133 3.133 0 014.429 4.431l-6.647 6.648a.695.695 0 11-.984-.984l6.647-6.65a1.74 1.74 0 00-2.462-2.46l-6.648 6.645-1.477 1.477a3.135 3.135 0 004.433 4.432l1.23-1.232L15.837 9.6l.493-.492a4.526 4.526 0 00-6.399-6.4l-7.385 7.385a.696.696 0 01-.985-.984l7.385-7.385a5.918 5.918 0 018.37 8.37L9.93 17.478l-1.232 1.231a4.526 4.526 0 01-6.399-6.4z"/></symbol><symbol viewBox="0 0 19 24" id="bell-icon" xmlns="http://www.w3.org/2000/svg"><path d="M12.163 21.105v.019a2.841 2.841 0 01-5.683 0v-.019h5.683zM9.322 0c.705 0 1.277.572 1.277 1.277v1.444a6.516 6.516 0 015.238 6.389v4.687l2.557 3.756a1.29 1.29 0 01-1.068 2.019H1.318A1.29 1.29 0 01.25 17.554l2.557-3.757V9.11a6.52 6.52 0 015.237-6.39V1.278C8.044.572 8.616 0 9.322 0z"/></symbol><symbol viewBox="0 0 18 14" id="camera-icon" xmlns="http://www.w3.org/2000/svg"><path d="M9 5.25c-1.491 0-2.7 1.176-2.7 2.625C6.3 9.325 7.509 10.5 9 10.5c1.49 0 2.7-1.175 2.7-2.625S10.49 5.25 9 5.25zm7.2-2.625h-2.16c-.297 0-.617-.224-.71-.498l-.56-1.63C12.678.225 12.358 0 12.06 0H5.94c-.297 0-.617.224-.71.498l-.56 1.63c-.093.273-.413.497-.71.497H1.8c-.99 0-1.8.788-1.8 1.75v7.875C0 13.212.81 14 1.8 14h14.4c.99 0 1.8-.788 1.8-1.75V4.375c0-.962-.81-1.75-1.8-1.75zM9 12.25c-2.485 0-4.5-1.959-4.5-4.375S6.515 3.5 9 3.5s4.5 1.959 4.5 4.375S11.485 12.25 9 12.25zm6.57-6.651a.621.621 0 01-.63-.613c0-.338.282-.612.63-.612.348 0 .63.274.63.612a.621.621 0 01-.63.613z"/></symbol><symbol viewBox="0 0 12 7" id="chevron-bottom-icon" xmlns="http://www.w3.org/2000/svg"><path fill-rule="evenodd" d="M1.716.29L6 4.568l4.284-4.28a1.002 1.002 0 011.32-.082l.095.082.011.012h.002l.083.094a.999.999 0 01-.085 1.32l-4.975 4.97-.015.016-.012.011a.997.997 0 01-.53.277l-.118.014h-.118a1 1 0 01-.648-.29L5.28 6.7l-.016-.015L.29 1.714A.997.997 0 01.205.395L.288.301H.29L.3.289A1.004 1.004 0 011.716.29z"/></symbol><symbol viewBox="0 0 30 30" id="circle-menu-icon" xmlns="http://www.w3.org/2000/svg"><g fill-rule="evenodd"><circle cx="15" cy="15" r="2"/><circle cx="21" cy="15" r="2"/><circle cx="9" cy="15" r="2"/></g></symbol><symbol viewBox="0 0 12 12" id="close-icon" xmlns="http://www.w3.org/2000/svg"><path fill-rule="evenodd" d="M1.707.293L5.95 4.535 10.192.293a1 1 0 011.32-.083l.095.083a1 1 0 010 1.414L7.364 5.95l4.243 4.243c.39.39.39 1.024 0 1.415-.39.39-1.024.39-1.415 0L5.95 7.364l-4.242 4.243a1 1 0 01-1.32.083l-.094-.083a1.002 1.002 0 010-1.415L4.535 5.95.293 1.707A1 1 0 011.707.293z"/></symbol><symbol preserveAspectRatio="none" viewBox="0 0 42 106" id="control-left-corner-icon" xmlns="http://www.w3.org/2000/svg"><path fill-rule="evenodd" d="M42 0v106h-.48a6.998 6.998 0 01-5.598-2.798l-34.528-46a6.999 6.999 0 010-8.404l34.528-46A6.998 6.998 0 0141.52 0H42z"/></symbol><symbol preserveAspectRatio="none" viewBox="0 0 41 106" id="control-right-corner-icon" xmlns="http://www.w3.org/2000/svg"><path fill-rule="evenodd" d="M5.082 2.782l34.526 46.017a6.999 6.999 0 010 8.402L5.082 103.218A6.997 6.997 0 010 105.998V.002a6.997 6.997 0 015.082 2.78z"/></symbol><symbol viewBox="0 0 20 20" id="conversation-icon" xmlns="http://www.w3.org/2000/svg"><path d="M19.917 17.961l-1.343-3.907a9.792 9.792 0 00.992-4.274 9.703 9.703 0 00-2.805-6.853A9.688 9.688 0 009.96.002 9.691 9.691 0 002.898 2.86 9.68 9.68 0 00.039 9.637c.006 2.914.819 4.72 2.326 6.751.034.046.202.225.245.271.707.762 1.991 1.816 3.431 2.257.004 0 .911.608 4.016.608a9.8 9.8 0 004.035-.987l3.907 1.342a1.502 1.502 0 001.558-.36c.41-.411.549-1.008.36-1.558zm-1.333.585a.124.124 0 01-.138.032l-4.183-1.437a.683.683 0 00-.545.042 8.414 8.414 0 01-3.903.97h-.013c-4.554 0-8.315-3.7-8.387-8.252a8.326 8.326 0 012.456-6.068 8.326 8.326 0 016.067-2.456c4.557.073 8.259 3.841 8.252 8.4a8.383 8.383 0 01-.97 3.903.697.697 0 00-.042.546l1.438 4.182c.017.053.007.1-.032.138z"/><path d="M13.9 6.118H5.703a.687.687 0 000 1.376H13.9a.688.688 0 100-1.376zm0 2.829H5.703a.687.687 0 000 1.376H13.9a.688.688 0 100-1.376zm-3.155 2.83H5.703a.688.688 0 100 1.376h5.042a.689.689 0 000-1.376z"/></symbol><symbol preserveAspectRatio="none" viewBox="0 0 42 106" id="correction-left-corner-icon" xmlns="http://www.w3.org/2000/svg"><path fill-rule="evenodd" d="M42 0v106h-.571a5 5 0 01-4.675-3.226l-36.426-96A5 5 0 015.003 0H42z"/></symbol><symbol preserveAspectRatio="none" viewBox="0 0 42 106" id="correction-right-corner-icon" xmlns="http://www.w3.org/2000/svg"><path fill-rule="evenodd" d="M36.998 0a5 5 0 014.675 6.774l-36.427 96A4.997 4.997 0 01.571 106H0V0h36.998z"/></symbol><symbol preserveAspectRatio="none" viewBox="0 0 32 106" id="data-left-corner-icon" xmlns="http://www.w3.org/2000/svg"><path fill-rule="evenodd" d="M32 0v106H4.998a5 5 0 01-4.816-6.346l26.844-96A5.002 5.002 0 0131.842 0H32z"/></symbol><symbol preserveAspectRatio="none" viewBox="0 0 32 106" id="data-right-corner-icon" xmlns="http://www.w3.org/2000/svg"><path fill-rule="evenodd" d="M27.002 0a5 5 0 014.816 6.346l-26.844 96A5.002 5.002 0 01.158 106H0V0h27.002z"/></symbol><symbol viewBox="0 0 240 23" id="document-bottom-corner-icon" xmlns="http://www.w3.org/2000/svg"><path fill-rule="evenodd" d="M176.459 0C127.565 0 98.294 23 63.243 23c-22.228 0-42.388-4.525-60.48-13.574A5 5 0 010 4.954V0h176.459zm63.54 0l.001.573a5 5 0 01-6.493 4.772C222.25 1.823 203.543.042 177.385 0H240z"/></symbol><symbol viewBox="0 0 12 7" id="dropdown-row-icon" xmlns="http://www.w3.org/2000/svg"><path fill-rule="evenodd" d="M1.716.29L6 4.568l4.284-4.28a1.002 1.002 0 011.32-.082l.095.082.011.012h.002l.083.094a.999.999 0 01-.085 1.32l-4.975 4.97-.015.016-.012.011a.997.997 0 01-.53.277l-.118.014h-.118a1 1 0 01-.648-.29L5.28 6.7l-.016-.015L.29 1.714A.997.997 0 01.205.395L.288.301H.29L.3.289A1.004 1.004 0 011.716.29z"/></symbol><symbol viewBox="0 0 14 14" id="edit-icon" xmlns="http://www.w3.org/2000/svg"><path d="M13.714 2L11.997.286a.98.98 0 00-1.382 0l-9.176 9.18a2.624 2.624 0 00-.633 1.026l-.008.025L0 14l3.486-.797.025-.008c.384-.127.74-.346 1.026-.632l9.177-9.181A.97.97 0 0014 2.691a.971.971 0 00-.286-.69zM1.454 12.546l.327-1.423 1.098 1.097-1.424.326zm2.426-.872l-1.552-1.55 7.585-7.588 1.551 1.55-7.584 7.588zm8.357-8.361l-1.551-1.55.62-.622 1.552 1.55-.62.622z"/></symbol><symbol viewBox="0 0 212 56" id="element-deletion-icon" xmlns="http://www.w3.org/2000/svg"><g fill-rule="evenodd" stroke-width="2"><g transform="translate(0 8)"><rect width="94" height="38" x="1" y="1" rx="6"/><path d="M110 25.5l7-4.5-7-4.5m7 4.5H96"/><rect width="94" height="38" x="117" y="1" rx="6"/></g><path d="M139 1l48 54m0-54l-48 54"/></g></symbol><symbol viewBox="0 0 35 29" id="exit-full-screen-icon" xmlns="http://www.w3.org/2000/svg"><path d="M12.111 1v9h-11m11.001 18v-9h-11M22.113 1v9h10.999M22.113 28v-9h10.999" stroke-width="2" fill-rule="evenodd" stroke-linecap="round" stroke-linejoin="round"/></symbol><symbol viewBox="0 0 22 19" id="folder-icon" xmlns="http://www.w3.org/2000/svg"><path d="M9.391.75c.508 1.024.779 1.528 1.164 1.913.532.532 1.267.86 2.076.86h5.033c.72 0 1.372.294 1.845.766.472.472.765 1.123.765 1.84l-.026 8.564c0 .72-.294 1.372-.767 1.845a2.6 2.6 0 01-1.844.766H3.36c-.72 0-1.372-.293-1.845-.766a2.6 2.6 0 01-.766-1.843L.777 3.361c0-.72.293-1.372.766-1.845A2.602 2.602 0 013.388.75z"/></symbol><symbol viewBox="0 0 18 18" id="form-add-icon" xmlns="http://www.w3.org/2000/svg"><path fill-rule="evenodd" d="M9 0a1 1 0 011 1v7h7a1 1 0 010 2h-7v7a1 1 0 01-2 0v-7H1a1 1 0 010-2h7V1a1 1 0 011-1z"/></symbol><symbol viewBox="0 0 19 17" id="hamburger-icon" xmlns="http://www.w3.org/2000/svg"><path d="M2 8.5h16.497M2 15.5h16.497M2 1.5h16.497"/></symbol><symbol viewBox="0 0 28 28" id="info-icon" xmlns="http://www.w3.org/2000/svg"><g fill="none" fill-rule="evenodd"><rect width="26" height="26" x="1" y="1" stroke="#7481EB" stroke-width="2" rx="13"/><circle cx="14.5" cy="8" r="1.5" fill="#7481EB"/><rect width="3" height="10" x="13" y="12" fill="#7481EB" rx="1.5"/></g></symbol><symbol viewBox="0 0 10 22" id="lightning-icon" xmlns="http://www.w3.org/2000/svg"><path d="M7.22.804a1 1 0 01.366 1.366L2.74 10.562H9l.059.002a1 1 0 01.855 1.5l-5 8.66a1 1 0 11-1.732-1l4.135-7.162H1a1 1 0 01-.727-1.687c.02-.06.047-.12.08-.179l5.5-9.526A1 1 0 017.22.804z" fill-rule="evenodd"/></symbol><symbol viewBox="0 0 18 18" id="my-flowcharts-icon" xmlns="http://www.w3.org/2000/svg"><g fill-rule="evenodd" stroke-width="1.4"><rect width="6.6" height="6.6" x=".7" y=".7" rx="3.3" transform="matrix(1 0 0 -1 0 8)"/><rect width="6.6" height="6.6" x=".7" y=".7" rx="3.3" transform="matrix(1 0 0 -1 10 8)"/><rect width="6.6" height="6.6" x=".7" y=".7" rx="3.3" transform="matrix(1 0 0 -1 0 18)"/><rect width="6.6" height="6.6" x=".7" y=".7" rx="3.3" transform="matrix(1 0 0 -1 10 18)"/></g></symbol><symbol viewBox="0 0 25 22" id="open-icon" xmlns="http://www.w3.org/2000/svg"><path d="M1 7.495V1h8M1 14.673V21h8M24 7.495V1h-8m8 13.672v6.327h-8" fill-rule="evenodd" stroke-linecap="round" stroke-linejoin="round" stroke-width="2"/></symbol><symbol viewBox="0 0 8 13" id="pagination-left-icon" xmlns="http://www.w3.org/2000/svg"><path fill-rule="evenodd" d="M7.13 10.717L2.89 6.475 7.13 2.23A1 1 0 007.213.91L7.131.817a1 1 0 00-1.414 0l-4.95 4.95a.99.99 0 00-.277.53l-.014.118v.118c.014.236.11.468.29.648l4.95 4.95a1 1 0 001.415-1.414z"/></symbol><symbol viewBox="0 0 8 13" id="pagination-right-icon" xmlns="http://www.w3.org/2000/svg"><path fill-rule="evenodd" d="M.769 10.717L5.01 6.475.769 2.23A1 1 0 01.685.911L.77.817a1 1 0 011.414 0l4.95 4.95c.15.15.242.336.277.53l.014.118v.118a.997.997 0 01-.291.648l-4.95 4.95A1 1 0 01.77 10.717z"/></symbol><symbol viewBox="0 0 20 19" id="person-icon-icon" xmlns="http://www.w3.org/2000/svg"><g stroke-width="1.4" fill-rule="evenodd"><rect width="6.6" height="6.6" x=".7" y=".7" rx="3.3" transform="matrix(1 0 0 -1 1 8)"/><path d="M14.238 10.629c.774 0 1.474-.314 1.98-.82.507-.507.82-1.207.82-1.98 0-.774-.313-1.474-.82-1.98a2.788 2.788 0 00-1.98-.82c-.773 0-1.473.313-1.98.82a2.792 2.792 0 00-.82 1.98c0 .773.314 1.473.82 1.98.507.506 1.207.82 1.98.82z"/><path d="M1.15 8.774c1.051-.964 2.385-1.446 4-1.446 2.423 0 4.736 1.209 5.5 4.177.509 1.98.123 4.146-1.158 6.5m4.746-7.377c1.477.198 3.5.7 4.162 3.373.442 1.78.038 3.114-1.212 3.999"/></g></symbol><symbol viewBox="0 0 20 20" id="phone-icon" xmlns="http://www.w3.org/2000/svg"><path d="M16.845 12.14l2.643 2.643a1.745 1.745 0 010 2.47l-1.85 1.85c-.597.597-1.435.897-2.456.897C10.585 20 3.039 13.826.65 7.785c-.946-2.393-.858-4.319.246-5.423l1.85-1.85a1.748 1.748 0 012.47 0L7.86 3.154c.68.681.68 1.79 0 2.47l-1.85 1.85c-.074.074-.108.506.272 1.309.42.885 1.167 1.89 2.106 2.829 2.106 2.105 3.884 2.632 4.138 2.378l1.85-1.85a1.745 1.745 0 012.47 0zm-9.87-8.102L4.334 1.396a.497.497 0 00-.702 0l-.615.615 3.345 3.344.615-.615a.497.497 0 000-.702zm5.7 14.149c-4.282-1.693-9.17-6.58-10.862-10.862-.74-1.872-.752-3.36-.032-4.08l.351-.35 3.345 3.344-.351.351c-2.348 2.348 5.933 10.634 8.284 8.284l.35-.35 3.345 3.344-.35.35c-.72.72-2.208.709-4.08-.031zm5.314-1.203l.615-.615a.496.496 0 000-.702l-2.642-2.643a.496.496 0 00-.702 0l-.615.615 3.344 3.345z" clip-rule="evenodd"/><path d="M11.25 7.875c.482 0 .874.393.874.875a.625.625 0 101.25 0 2.127 2.127 0 00-2.125-2.125.625.625 0 100 1.25zm0-3a3.88 3.88 0 013.874 3.875.625.625 0 101.25 0 5.13 5.13 0 00-5.124-5.125.625.625 0 100 1.25z"/><path d="M11.25 1.875a6.883 6.883 0 016.875 6.875.625.625 0 101.25 0c0-4.48-3.645-8.125-8.126-8.125a.625.625 0 100 1.25z"/></symbol><symbol viewBox="0 0 17 17" id="plus-icon" xmlns="http://www.w3.org/2000/svg"><path fill-rule="evenodd" d="M9.95 1.95v5.999h6a1 1 0 01.992.875l.008.126a1 1 0 01-1 1h-6v6a1 1 0 01-2 0v-6h-6a1 1 0 01-.992-.875L.95 8.95a1 1 0 011-1l6-.001v-6a1 1 0 012 0z"/></symbol><symbol preserveAspectRatio="none" viewBox="0 0 282 282" id="question-corner-icon" xmlns="http://www.w3.org/2000/svg"><rect x="100" y="-100" width="200" height="200" rx="7" transform="rotate(45)"/></symbol><symbol viewBox="0 0 28 28" id="question-icon" xmlns="http://www.w3.org/2000/svg"><g fill="none" fill-rule="evenodd"><rect width="26" height="26" x="1" y="1" stroke="#7481EB" stroke-width="2" rx="13"/><path fill="#7481EB" fill-rule="nonzero" d="M14.92 16.551v-.574c0-.383.081-.692.244-.928.163-.236.55-.581 1.163-1.034.893-.638 1.5-1.212 1.818-1.723.32-.51.479-1.116.479-1.818 0-1.053-.388-1.895-1.163-2.527-.775-.631-1.82-.947-3.134-.947A9.125 9.125 0 009.8 8.196l1.043 2.096c1.225-.625 2.316-.938 3.273-.938.549 0 .976.109 1.283.326.306.217.459.532.459.947 0 .37-.107.705-.32 1.005-.214.3-.656.69-1.326 1.168-.696.51-1.174.992-1.436 1.445-.261.453-.392.985-.392 1.598v.708h2.536zm-1.158 4.9c.523 0 .932-.145 1.225-.435.294-.29.44-.688.44-1.192 0-.523-.145-.925-.435-1.206-.29-.28-.7-.42-1.23-.42-.549 0-.966.136-1.254.41-.287.275-.43.68-.43 1.216 0 .517.146.917.44 1.201.293.284.708.426 1.244.426z"/></g></symbol><symbol viewBox="0 0 92 48" id="rhombus-icon" xmlns="http://www.w3.org/2000/svg"><path d="M2.864 19.386L41.727 1.019a10.004 10.004 0 018.546 0l38.863 18.367A5 5 0 0192 23.906v.188a5 5 0 01-2.864 4.52L50.273 46.981a10.004 10.004 0 01-8.546 0L2.864 28.614A5 5 0 010 24.094v-.188a5 5 0 012.864-4.52z" fill-rule="evenodd"/></symbol><symbol viewBox="0 0 18 18" id="search-icon" xmlns="http://www.w3.org/2000/svg"><path d="M7.927 0C3.557 0 0 3.556 0 7.927c0 4.37 3.556 7.927 7.927 7.927 4.37 0 7.927-3.556 7.927-7.927C15.854 3.557 12.298 0 7.927 0zm0 14.39a6.471 6.471 0 01-6.464-6.463c0-3.564 2.9-6.464 6.464-6.464a6.47 6.47 0 016.463 6.464 6.47 6.47 0 01-6.463 6.463z"/><path d="M17.786 16.751l-4.196-4.195a.73.73 0 10-1.034 1.034l4.195 4.196a.73.73 0 101.035-1.035z"/></symbol><symbol viewBox="0 0 24 24" id="send-icon" xmlns="http://www.w3.org/2000/svg"><path d="M23.794.206a.703.703 0 00-.758-.156L.442 9.088a.703.703 0 00-.046 1.285l8.91 4.321 4.32 8.91a.705.705 0 00.633.396h.025a.703.703 0 00.628-.442L23.95.964a.703.703 0 00-.156-.758zM2.442 9.802l17.935-7.174L9.69 13.317 2.442 9.802zm11.756 11.756l-3.515-7.247L21.372 3.623l-7.174 17.935z"/></symbol><symbol viewBox="0 0 28 28" id="telephone-icon" xmlns="http://www.w3.org/2000/svg"><path d="M23.549 17.516c-1.012-.999-2.276-.999-3.281 0-.767.76-1.534 1.521-2.288 2.295-.207.212-.38.257-.632.116-.496-.271-1.025-.49-1.502-.787-2.224-1.398-4.086-3.197-5.736-5.22-.819-1.006-1.547-2.082-2.056-3.294-.104-.245-.084-.406.116-.606.767-.741 1.514-1.502 2.268-2.262C11.49 6.7 11.49 5.463 10.432 4.4c-.6-.606-1.199-1.2-1.798-1.805-.62-.619-1.231-1.244-1.857-1.856-1.012-.986-2.275-.986-3.28.006-.774.76-1.515 1.54-2.301 2.288C.467 3.723.1 4.567.022 5.553-.1 7.158.293 8.673.847 10.15c1.135 3.055 2.862 5.769 4.957 8.256 2.83 3.365 6.207 6.027 10.158 7.948 1.78.863 3.623 1.527 5.627 1.637 1.38.077 2.578-.271 3.539-1.347.657-.735 1.398-1.405 2.094-2.108 1.032-1.044 1.038-2.307.013-3.339-1.224-1.23-2.455-2.455-3.686-3.68z"/></symbol><symbol viewBox="0 0 11 9" id="tick-icon" xmlns="http://www.w3.org/2000/svg"><path d="M1 4.675L3.948 8 10 1"/></symbol><symbol viewBox="0 0 17 18" id="trash-icon" xmlns="http://www.w3.org/2000/svg"><path d="M16.07 2.57h-4.5v-.642A1.926 1.926 0 009.644 0H7.072a1.928 1.928 0 00-1.928 1.928v.643H.645a.642.642 0 100 1.285h.699l1.23 13.555c.03.332.309.585.642.584h10.283a.642.642 0 00.642-.584l1.23-13.555h.698a.643.643 0 000-1.285zm-9.64-.642c0-.355.287-.643.642-.643h2.57c.356 0 .643.288.643.643v.643H6.43v-.643zm6.482 14.782h-9.11L2.638 3.856H14.08L12.912 16.71z"/><path d="M6.43 14.739v-.003l-.643-8.998a.645.645 0 00-1.286.092l.643 8.997a.643.643 0 00.643.597h.046a.641.641 0 00.596-.685zm1.927-9.598a.642.642 0 00-.642.643v8.998a.641.641 0 101.285 0V5.784a.643.643 0 00-.643-.643zm3.259 0a.645.645 0 00-.688.597l-.643 8.998a.643.643 0 00.594.688h.049a.643.643 0 00.643-.597l.642-8.997a.645.645 0 00-.597-.689z"/></symbol><symbol viewBox="0 0 18 18" id="vertical-lines-icon" xmlns="http://www.w3.org/2000/svg"><g fill-rule="evenodd" stroke-width="1.4"><rect width="16.6" height="6.6" x=".7" y=".7" rx="3.3" transform="matrix(1 0 0 -1 0 8)"/><rect width="16.6" height="6.6" x=".7" y=".7" rx="3.3" transform="matrix(1 0 0 -1 0 18)"/></g></symbol></svg>