<?xml version="1.0" encoding="utf-8"?><svg xmlns="http://www.w3.org/2000/svg" xmlns:xlink="http://www.w3.org/1999/xlink"><symbol fill="none" viewBox="0 0 30 30" id="backup-icon" xmlns="http://www.w3.org/2000/svg"><circle cx="15" cy="15" r="15" fill="#EDEEF0"/><path stroke="#6B768B" stroke-linecap="round" stroke-linejoin="round" stroke-width="2" d="M8.1 13.8c.3-2.2 1.5-4.1 3.2-5.3m0 0C12.6 7.6 14.2 7 16 7c4.4 0 8 3.6 8 8s-3.6 8-8 8c-3.2 0-5.9-1.9-7.2-4.6"/><path fill="#6B768B" fill-rule="evenodd" d="M7.1 16.6L6.6 14 6 11.5l2.5.8 2.5.8-1.9 1.7-2 1.8z" clip-rule="evenodd"/></symbol><symbol fill="none" viewBox="0 0 30 30" id="backup-selected-icon" xmlns="http://www.w3.org/2000/svg"><circle cx="15" cy="15" r="15" fill="#EBAE28"/><path stroke="#fff" stroke-linecap="round" stroke-linejoin="round" stroke-width="2" d="M8.1 13.8c.3-2.2 1.5-4.1 3.2-5.3m0 0C12.6 7.6 14.2 7 16 7c4.4 0 8 3.6 8 8s-3.6 8-8 8c-3.2 0-5.9-1.9-7.2-4.6"/><path fill="#fff" fill-rule="evenodd" d="M7.1 16.6L6.6 14 6 11.5l2.5.8 2.5.8-1.9 1.7-2 1.8z" clip-rule="evenodd"/></symbol><symbol fill="none" viewBox="0 0 30 30" id="book-icon" xmlns="http://www.w3.org/2000/svg"><circle cx="15" cy="15" r="15" fill="#EDEEF0"/><g stroke="#6B768B" stroke-linecap="round" stroke-linejoin="round" stroke-width="2" clip-path="url(#acclip0)"><path d="M20.822 7.889V22.11H12.29c-1.333 0-2.4-.978-2.4-2.133v-9.956c0-1.155 1.067-2.133 2.4-2.133h8.533z"/><path d="M9.889 19.889c0-1.156.978-2.133 2.133-2.133h8.8m-7.911-9.6v9.155"/></g><defs><clipPath id="acclip0"><path fill="#fff" d="M0 0h12.711v16H0z" transform="translate(9 7)"/></clipPath></defs></symbol><symbol fill="none" viewBox="0 0 30 30" id="book-selected-icon" xmlns="http://www.w3.org/2000/svg"><circle cx="15" cy="15" r="15" fill="#EBAE28"/><g stroke="#fff" stroke-linecap="round" stroke-linejoin="round" stroke-width="2" clip-path="url(#adclip0)"><path d="M20.822 7.889V22.11H12.29c-1.333 0-2.4-.978-2.4-2.133v-9.956c0-1.155 1.067-2.133 2.4-2.133h8.533z"/><path d="M9.889 19.889c0-1.156.978-2.133 2.133-2.133h8.8m-7.911-9.6v9.155"/></g><defs><clipPath id="adclip0"><path fill="#fff" d="M0 0h12.711v16H0z" transform="translate(9 7)"/></clipPath></defs></symbol><symbol fill="none" viewBox="0 0 30 30" id="callback-icon" xmlns="http://www.w3.org/2000/svg"><circle cx="15" cy="15" r="15" fill="#EDEEF0"/><g clip-path="url(#aeclip0)"><path stroke="#6B768B" stroke-linecap="round" stroke-linejoin="round" stroke-width="2" d="M17.2 16.7h-3.4m-3.9 0c-2.2 0-2.9-2.3-2.9-3.3v-2.2C7 9.5 8.5 8 10.3 8h6.9c1.8 0 3.3 1.5 3.3 3.2v2.2c0 1.8-1.5 3.2-3.3 3.2m-7.3.1l2 2.9 1.8-2.9"/><path fill="#6B768B" fill-rule="evenodd" d="M9.2 12.3c0-.7.6-1.3 1.3-1.3.7 0 1.4.6 1.4 1.3 0 .7-.6 1.3-1.4 1.3-.8 0-1.3-.5-1.3-1.3zm3.2 0c0-.7.6-1.3 1.3-1.3.8 0 1.4.6 1.4 1.3 0 .7-.6 1.3-1.4 1.3-.7.1-1.3-.5-1.3-1.3zm3.2 0c0-.7.6-1.3 1.4-1.3.8 0 1.4.6 1.4 1.3 0 .7-.6 1.3-1.4 1.3-.8.1-1.4-.5-1.4-1.3z" clip-rule="evenodd"/><path stroke="#6B768B" stroke-linecap="round" stroke-linejoin="round" stroke-width="2" d="M20.1 19.2c2.2 0 2.9-2.3 2.9-3.2v-2.2m-2.9 5.4l-2 2.9-1.8-2.9h-1.5"/></g><defs><clipPath id="aeclip0"><path fill="#fff" d="M0 0h18v16.1H0z" transform="translate(6 7)"/></clipPath></defs></symbol><symbol fill="none" viewBox="0 0 30 30" id="callback-selected-icon" xmlns="http://www.w3.org/2000/svg"><circle cx="15" cy="15" r="15" fill="#EBAE28"/><g clip-path="url(#afclip0)"><path stroke="#fff" stroke-linecap="round" stroke-linejoin="round" stroke-width="2" d="M17.2 16.7h-3.4m-3.9 0c-2.2 0-2.9-2.3-2.9-3.3v-2.2C7 9.5 8.5 8 10.3 8h6.9c1.8 0 3.3 1.5 3.3 3.2v2.2c0 1.8-1.5 3.2-3.3 3.2m-7.3.1l2 2.9 1.8-2.9"/><path fill="#fff" fill-rule="evenodd" d="M9.2 12.3c0-.7.6-1.3 1.3-1.3.7 0 1.4.6 1.4 1.3 0 .7-.6 1.3-1.4 1.3-.8 0-1.3-.5-1.3-1.3zm3.2 0c0-.7.6-1.3 1.3-1.3.8 0 1.4.6 1.4 1.3 0 .7-.6 1.3-1.4 1.3-.7.1-1.3-.5-1.3-1.3zm3.2 0c0-.7.6-1.3 1.4-1.3.8 0 1.4.6 1.4 1.3 0 .7-.6 1.3-1.4 1.3-.8.1-1.4-.5-1.4-1.3z" clip-rule="evenodd"/><path stroke="#fff" stroke-linecap="round" stroke-linejoin="round" stroke-width="2" d="M20.1 19.2c2.2 0 2.9-2.3 2.9-3.2v-2.2m-2.9 5.4l-2 2.9-1.8-2.9h-1.5"/></g><defs><clipPath id="afclip0"><path fill="#fff" d="M0 0h18v16.1H0z" transform="translate(6 7)"/></clipPath></defs></symbol><symbol fill="none" viewBox="0 0 30 30" id="check-icon" xmlns="http://www.w3.org/2000/svg"><circle cx="15" cy="15" r="15" fill="#EDEEF0"/><g stroke="#6B768B" stroke-linecap="round" stroke-linejoin="round" stroke-width="2" clip-path="url(#agclip0)"><path d="M8.778 8.778h12.444v12.444H8.778V8.778z"/><path d="M11.578 15.233l2.955 2.878 4.356-7.155"/></g><defs><clipPath id="agclip0"><path fill="#fff" d="M0 0h14v14H0z" transform="translate(8 8)"/></clipPath></defs></symbol><symbol fill="none" viewBox="0 0 30 30" id="check-selected-icon" xmlns="http://www.w3.org/2000/svg"><circle cx="15" cy="15" r="15" fill="#EBAE28"/><g stroke="#fff" stroke-linecap="round" stroke-linejoin="round" stroke-width="2" clip-path="url(#ahclip0)"><path d="M8.778 8.778h12.444v12.444H8.778V8.778z"/><path d="M11.578 15.233l2.955 2.878 4.356-7.155"/></g><defs><clipPath id="ahclip0"><path fill="#fff" d="M0 0h14v14H0z" transform="translate(8 8)"/></clipPath></defs></symbol><symbol viewBox="0 0 12 6" id="chevron-down-icon" xmlns="http://www.w3.org/2000/svg"><path d="M11 1L6 5 1 1"/></symbol><symbol viewBox="0 0 10 10" id="close-icon" xmlns="http://www.w3.org/2000/svg"><path fill-rule="evenodd" clip-rule="evenodd" d="M1.707.293A1 1 0 00.293 1.707L3.586 5 .293 8.293a1 1 0 001.414 1.414L5 6.414l3.293 3.293a1 1 0 001.414-1.414L6.414 5l3.293-3.293A1 1 0 008.293.293L5 3.586 1.707.293z"/></symbol><symbol fill="none" viewBox="0 0 30 30" id="display-icon" xmlns="http://www.w3.org/2000/svg"><circle cx="15" cy="15" r="15" fill="#EDEEF0"/><g stroke="#6B768B" stroke-linecap="round" stroke-linejoin="round" stroke-width="2" clip-path="url(#akclip0)"><path d="M6.976 7.976h15.61v9.56H6.975v-9.56zm9.463 10.146l1.463 3.805h-6.244l1.171-3.805m-3.317 3.902h10.44m-7.513-10.731h7.22m-7.22 2.927h7.22"/></g><defs><clipPath id="akclip0"><path fill="#fff" d="M0 0h17.561v16H0z" transform="translate(6 7)"/></clipPath></defs></symbol><symbol fill="none" viewBox="0 0 30 30" id="display-selected-icon" xmlns="http://www.w3.org/2000/svg"><circle cx="15" cy="15" r="15" fill="#EBAE28"/><g stroke="#fff" stroke-linecap="round" stroke-linejoin="round" stroke-width="2" clip-path="url(#alclip0)"><path d="M6.976 7.976h15.61v9.56H6.975v-9.56zm9.463 10.146l1.463 3.805h-6.244l1.171-3.805m-3.317 3.902h10.44m-7.513-10.731h7.22m-7.22 2.927h7.22"/></g><defs><clipPath id="alclip0"><path fill="#fff" d="M0 0h17.561v16H0z" transform="translate(6 7)"/></clipPath></defs></symbol><symbol fill="none" viewBox="0 0 30 30" id="filter-icon" xmlns="http://www.w3.org/2000/svg"><circle cx="15" cy="15" r="15" fill="#EDEEF0"/><g clip-path="url(#amclip0)"><path stroke="#6B768B" stroke-linecap="round" stroke-linejoin="round" stroke-width="2" d="M9 10.8h13M9 20.1h13M9 15.2h13"/><path fill="#6B768B" fill-rule="evenodd" d="M11.1 10.8c0-1 .8-1.8 1.8-1.8s1.8.8 1.8 1.8-.8 1.8-1.8 1.8-1.8-.8-1.8-1.8zm0 9.3c0-1 .8-1.8 1.8-1.8s1.8.8 1.8 1.8-.8 1.8-1.8 1.8-1.8-.8-1.8-1.8zm6.8-4.9c0-1 .8-1.8 1.8-1.8s1.8.8 1.8 1.8-.9 1.8-1.8 1.8c-1 0-1.8-.8-1.8-1.8z" clip-rule="evenodd"/></g><defs><clipPath id="amclip0"><path fill="#fff" d="M0 0h18v12.9H0z" transform="translate(6 9)"/></clipPath></defs></symbol><symbol fill="none" viewBox="0 0 30 30" id="filter-selected-icon" xmlns="http://www.w3.org/2000/svg"><circle cx="15" cy="15" r="15" fill="#EBAE28"/><g clip-path="url(#anclip0)"><path stroke="#fff" stroke-linecap="round" stroke-linejoin="round" stroke-width="2" d="M9 10.8h13M9 20.1h13M9 15.2h13"/><path fill="#fff" fill-rule="evenodd" d="M11.1 10.8c0-1 .8-1.8 1.8-1.8s1.8.8 1.8 1.8-.8 1.8-1.8 1.8-1.8-.8-1.8-1.8zm0 9.3c0-1 .8-1.8 1.8-1.8s1.8.8 1.8 1.8-.8 1.8-1.8 1.8-1.8-.8-1.8-1.8zm6.8-4.9c0-1 .8-1.8 1.8-1.8s1.8.8 1.8 1.8-.9 1.8-1.8 1.8c-1 0-1.8-.8-1.8-1.8z" clip-rule="evenodd"/></g><defs><clipPath id="anclip0"><path fill="#fff" d="M0 0h18v12.9H0z" transform="translate(6 9)"/></clipPath></defs></symbol><symbol fill="none" viewBox="0 0 30 30" id="folder-icon" xmlns="http://www.w3.org/2000/svg"><circle cx="15" cy="15" r="15" fill="#EDEEF0"/><path fill="#6B768B" d="M8 20V9h5.533a1 1 0 011 1v2.23H21a1 1 0 011 1V20a1 1 0 01-1 1H9a1 1 0 01-1-1z" stroke="#fff" stroke-width="2"/></symbol><symbol fill="none" viewBox="0 0 30 30" id="folder-selected-icon" xmlns="http://www.w3.org/2000/svg"><circle cx="15" cy="15" r="15" fill="#EBAE28"/><path fill="#fff" d="M8 20V9h5.533a1 1 0 011 1v2.23H21a1 1 0 011 1V20a1 1 0 01-1 1H9a1 1 0 01-1-1z" stroke="#fff" stroke-width="2"/></symbol><symbol fill="none" viewBox="0 0 24 24" id="kebab-menu-icon" xmlns="http://www.w3.org/2000/svg"><rect width="23" height="23" x=".5" y=".5" fill="#fff" stroke="#D5DAE1" rx="11.5"/><circle cx="12" cy="7" r="2" fill="#D5DAE1"/><circle cx="12" cy="12" r="2" fill="#D5DAE1"/><circle cx="12" cy="17" r="2" fill="#D5DAE1"/></symbol><symbol viewBox="0 0 10 22" id="lightning-icon" xmlns="http://www.w3.org/2000/svg"><path d="M7.22.804a1 1 0 01.366 1.366L2.74 10.562H9l.059.002a1 1 0 01.855 1.5l-5 8.66a1 1 0 11-1.732-1l4.135-7.162H1a1 1 0 01-.727-1.687c.02-.06.047-.12.08-.179l5.5-9.526A1 1 0 017.22.804z" fill="#FE7D8B" fill-rule="evenodd"/></symbol><symbol fill="none" viewBox="0 0 30 30" id="list-icon" xmlns="http://www.w3.org/2000/svg"><circle cx="15" cy="15" r="15" fill="#EDEEF0"/><g stroke="#6B768B" stroke-linecap="round" stroke-linejoin="round" stroke-width="2" clip-path="url(#asclip0)"><path d="M9 7.889h11.1V22.11H9V7.89zm2.8 3.555h5.4M11.8 15h5.4m-5.4 3.644h5.4"/></g><defs><clipPath id="asclip0"><path fill="#fff" d="M0 0h13.1v16H0z" transform="translate(8 7)"/></clipPath></defs></symbol><symbol fill="none" viewBox="0 0 30 30" id="list-selected-icon" xmlns="http://www.w3.org/2000/svg"><circle cx="15" cy="15" r="15" fill="#EBAE28"/><g stroke="#fff" stroke-linecap="round" stroke-linejoin="round" stroke-width="2" clip-path="url(#atclip0)"><path d="M9 7.889h11.1V22.11H9V7.89zm2.8 3.555h5.4M11.8 15h5.4m-5.4 3.644h5.4"/></g><defs><clipPath id="atclip0"><path fill="#fff" d="M0 0h13.1v16H0z" transform="translate(8 7)"/></clipPath></defs></symbol><symbol fill="none" viewBox="0 0 30 30" id="olympiad-icon" xmlns="http://www.w3.org/2000/svg"><circle cx="15" cy="15" r="15" fill="#EDEEF0"/><g stroke="#6B768B" stroke-linecap="round" stroke-linejoin="round" stroke-width="2" clip-path="url(#auclip0)"><path d="M10.733 7.889h8.356l-1.067 8.8C17.844 18.022 16.778 19 15.533 19h-1.155c-1.245 0-2.311-1.067-2.49-2.311l-1.155-8.8zM16.778 19l1.155 3.111h-5.689L13.222 19m5.867-9.422c1.956 0 3.111 1.422 2.756 3.11-.356 1.512-1.867 3.734-3.378 3.556m-7.734-6.666c-1.955 0-3.2 1.333-2.755 3.022.355 1.511 1.955 3.733 3.466 3.556"/></g><defs><clipPath id="auclip0"><path fill="#fff" d="M0 0h15.822v16H0z" transform="translate(7 7)"/></clipPath></defs></symbol><symbol fill="none" viewBox="0 0 30 30" id="olympiad-selected-icon" xmlns="http://www.w3.org/2000/svg"><circle cx="15" cy="15" r="15" fill="#EBAE28"/><g stroke="#fff" stroke-linecap="round" stroke-linejoin="round" stroke-width="2" clip-path="url(#avclip0)"><path d="M10.733 7.889h8.356l-1.067 8.8C17.844 18.022 16.778 19 15.533 19h-1.155c-1.245 0-2.311-1.067-2.49-2.311l-1.155-8.8zM16.778 19l1.155 3.111h-5.689L13.222 19m5.867-9.422c1.956 0 3.111 1.422 2.756 3.11-.356 1.512-1.867 3.734-3.378 3.556m-7.734-6.666c-1.955 0-3.2 1.333-2.755 3.022.355 1.511 1.955 3.733 3.466 3.556"/></g><defs><clipPath id="avclip0"><path fill="#fff" d="M0 0h15.822v16H0z" transform="translate(7 7)"/></clipPath></defs></symbol><symbol fill="none" viewBox="0 0 20 17" id="sidebar-icon" xmlns="http://www.w3.org/2000/svg"><path fill="#0F2345" fill-rule="evenodd" d="M14 1.5A1.5 1.5 0 0012.5 0h-11a1.5 1.5 0 000 3h11A1.5 1.5 0 0014 1.5zm6 7A1.5 1.5 0 0018.5 7h-17a1.5 1.5 0 100 3h17A1.5 1.5 0 0020 8.5zM5.5 14a1.5 1.5 0 010 3h-4a1.5 1.5 0 010-3h4z" clip-rule="evenodd"/></symbol><symbol fill="none" viewBox="0 0 30 30" id="statistics-icon" xmlns="http://www.w3.org/2000/svg"><circle cx="15" cy="15" r="15" fill="#EDEEF0"/><g clip-path="url(#axclip0)"><path stroke="#6B768B" stroke-linecap="round" stroke-linejoin="round" stroke-width="2" d="M9 21.1l3.9-6.4 3.7 2.8 4.4-7.2"/><path fill="#6B768B" fill-rule="evenodd" d="M22.9 7l-.1 2.9-.1 2.9-2.5-1.5-2.3-1.5 2.5-1.4L22.9 7z" clip-rule="evenodd"/></g><defs><clipPath id="axclip0"><path fill="#fff" d="M0 0h14.9v15.1H0z" transform="translate(8 7)"/></clipPath></defs></symbol><symbol fill="none" viewBox="0 0 30 30" id="statistics-selected-icon" xmlns="http://www.w3.org/2000/svg"><circle cx="15" cy="15" r="15" fill="#EBAE28"/><g clip-path="url(#ayclip0)"><path stroke="#fff" stroke-linecap="round" stroke-linejoin="round" stroke-width="2" d="M9 21.1l3.9-6.4 3.7 2.8 4.4-7.2"/><path fill="#fff" fill-rule="evenodd" d="M22.9 7l-.1 2.9-.1 2.9-2.5-1.5-2.3-1.5 2.5-1.4L22.9 7z" clip-rule="evenodd"/></g><defs><clipPath id="ayclip0"><path fill="#fff" d="M0 0h14.9v15.1H0z" transform="translate(8 7)"/></clipPath></defs></symbol><symbol fill="none" viewBox="0 0 30 30" id="success-icon" xmlns="http://www.w3.org/2000/svg"><circle cx="15" cy="15" r="15" fill="#EDEEF0"/><g stroke="#6B768B" stroke-linecap="round" stroke-linejoin="round" stroke-width="2" clip-path="url(#azclip0)"><path d="M7.92 15c0-3.862 3.126-7.08 7.08-7.08s7.08 3.218 7.08 7.08c0 3.954-3.218 7.08-7.08 7.08-3.954 0-7.08-3.126-7.08-7.08z"/><path d="M11.782 15.92l2.482 1.93 4.23-5.425"/></g><defs><clipPath id="azclip0"><path fill="#fff" d="M0 0h16v16H0z" transform="translate(7 7)"/></clipPath></defs></symbol><symbol fill="none" viewBox="0 0 30 30" id="success-selected-icon" xmlns="http://www.w3.org/2000/svg"><circle cx="15" cy="15" r="15" fill="#EBAE28"/><g stroke="#fff" stroke-linecap="round" stroke-linejoin="round" stroke-width="2" clip-path="url(#baclip0)"><path d="M7.92 15c0-3.862 3.126-7.08 7.08-7.08s7.08 3.218 7.08 7.08c0 3.954-3.218 7.08-7.08 7.08-3.954 0-7.08-3.126-7.08-7.08z"/><path d="M11.782 15.92l2.482 1.93 4.23-5.425"/></g><defs><clipPath id="baclip0"><path fill="#fff" d="M0 0h16v16H0z" transform="translate(7 7)"/></clipPath></defs></symbol><symbol fill="none" viewBox="0 0 30 30" id="tasks-icon" xmlns="http://www.w3.org/2000/svg"><circle cx="15" cy="15" r="15" fill="#EDEEF0"/><path stroke="#6B768B" stroke-linecap="round" stroke-linejoin="round" stroke-width="2" d="M11.474 19.087H9V8h7.932v.732"/><path stroke="#6B768B" stroke-linecap="round" stroke-linejoin="round" stroke-width="2" d="M13.629 10.914h7.932V22h-7.932V10.914z" clip-rule="evenodd"/><path stroke="#6B768B" stroke-linecap="round" stroke-linejoin="round" stroke-width="2" d="M15.892 13.72h3.37m-3.37 2.737h3.37m-3.37 2.63h3.37"/></symbol><symbol fill="none" viewBox="0 0 30 30" id="tasks-selected-icon" xmlns="http://www.w3.org/2000/svg"><circle cx="15" cy="15" r="15" fill="#EBAE28"/><path stroke="#fff" stroke-linecap="round" stroke-linejoin="round" stroke-width="2" d="M11.474 19.087H9V8h7.932v.732"/><path stroke="#fff" stroke-linecap="round" stroke-linejoin="round" stroke-width="2" d="M13.629 10.914h7.932V22h-7.932V10.914z" clip-rule="evenodd"/><path stroke="#fff" stroke-linecap="round" stroke-linejoin="round" stroke-width="2" d="M15.892 13.72h3.37m-3.37 2.737h3.37m-3.37 2.63h3.37"/></symbol><symbol viewBox="0 0 14 12" id="tick-icon" xmlns="http://www.w3.org/2000/svg"><path d="M1 7.5L5.5 11l7-10"/></symbol><symbol viewBox="0 0 22 22" id="type-0-icon" xmlns="http://www.w3.org/2000/svg"><path d="M6.105 19.41l-3.431-3.598L15.896 2.674l3.43 3.598L6.105 19.41z"/><path d="M19.326 6.272l-3.43-3.598 1.422-1.423a.91.91 0 011.255 0l2.176 2.26c.335.334.335.92 0 1.338l-1.422 1.423zM1 21l.837-2.594.837-2.594 1.673 1.84 1.674 1.842-2.51.753L1 21z"/></symbol><symbol viewBox="0 0 20 20" id="type-1-icon" xmlns="http://www.w3.org/2000/svg"><path d="M7.857 2.857h9.286M7.857 10h9.286m-9.286 7.143h9.286" stroke="#0A234A" stroke-width="2" stroke-linecap="round" stroke-linejoin="round"/><path fill-rule="evenodd" clip-rule="evenodd" d="M1.786 1.214H.929V0h2.285v5.571H1.786V1.214zM4.5 12.786H0l1.357-1.429c.357-.357.643-.714.857-1 .215-.286.357-.5.429-.643.143-.214.214-.357.286-.428C2.929 9.143 3 9.07 3 9c0-.071 0-.143-.071-.214-.072-.143-.072-.215-.143-.286-.072-.071-.143-.143-.215-.143-.071 0-.142-.071-.285-.071-.215 0-.357.071-.429.214-.143.143-.143.286-.143.5v.214H.143c0-.357.071-.643.143-.857.071-.286.285-.5.428-.714.215-.214.429-.357.715-.429.285-.071.571-.143.857-.143.285 0 .571.072.857.143.286.072.5.215.714.429.214.143.357.357.429.643.143.214.143.5.143.785 0 .286-.072.572-.215.858-.143.285-.357.5-.643.785l-.928.857h1.786v1.215H4.5zM2 16.429h.143c.214 0 .357-.072.428-.143.143-.143.143-.215.143-.429 0-.143-.071-.286-.143-.428-.071-.072-.214-.143-.428-.143-.143 0-.286.071-.429.143-.143.142-.143.285-.143.428H.286c0-.286.143-.571.214-.786.143-.214.286-.428.429-.571a1.38 1.38 0 01.642-.357c.215-.072.5-.143.786-.143.286 0 .5.071.786.143.214.071.428.214.571.357.143.143.286.286.357.5.072.214.143.429.143.643 0 .286-.071.5-.143.643-.071.143-.357.428-.5.5.286.071.5.214.643.5.143.214.215.5.215.857 0 .286-.072.5-.143.786-.143.214-.286.428-.429.571-.214.143-.428.286-.714.357-.286.072-.572.143-.857.143-.429 0-.786-.071-1.143-.286-.357-.143-.643-.428-.857-.785-.072-.143-.143-.358-.215-.5 0-.143-.071-.358-.071-.5h1.429c0 .285.071.428.214.571a.81.81 0 00.571.214c.286 0 .429-.071.572-.214.143-.143.143-.286.143-.5a.81.81 0 00-.215-.571.648.648 0 00-.5-.215H1.93v-.785H2z" fill="#0A234A"/></symbol><symbol viewBox="0 0 21 22" id="type-2-icon" xmlns="http://www.w3.org/2000/svg"><path d="M19.692 3v15.923c0 .692-.538 1.23-1.23 1.23H2.308C1.538 20.232 1 19.694 1 19V3c0-.692.538-1.23 1.23-1.23h13.385"/><path d="M6.615 9.154l3.539 4.538 8-11.923"/></symbol><symbol viewBox="0 0 21 22" id="type-3-icon" xmlns="http://www.w3.org/2000/svg"><path d="M1 11c0-5.077 4.154-9.23 9.23-9.23 5.078 0 9.232 4.153 9.232 9.23 0 5.077-4.154 9.23-9.231 9.23S1 16.078 1 11z"/><path fill-rule="evenodd" clip-rule="evenodd" d="M8.154 11c0-1.154.923-2.077 2.077-2.077s2.077.923 2.077 2.077a2.068 2.068 0 01-2.077 2.077A2.068 2.068 0 018.154 11z"/></symbol><symbol viewBox="0 0 36 18" id="type-4-icon" xmlns="http://www.w3.org/2000/svg"><g clip-path="url(#biclip0)"><path d="M2.2 1h31.4c.7 0 1.2.5 1.2 1.1v13.3c0 .6-.5 1.1-1.2 1.1H2.2c-.7 0-1.2-.5-1.2-1.1V2.1C1 1.5 1.5 1 2.2 1zm-.8 9.9l33.2-.1m-33-4.7h32.2M7.9 5.4V1m5.5 9.7V6.3m-5.5 4.4V6.3m10.7 4.2V6.9m4.9 3.6v-4m-4.9-.4V1.7m-5.2 4.4V1.7m16 14.7V12m0-6.6V1m0 9.9V6.5m-5.9-.2V1.8M8.6 10.9v5"/></g><defs><clipPath id="biclip0"><path d="M0 0h35.8v17.4H0z"/></clipPath></defs></symbol><symbol viewBox="0 0 22 22" id="type-5-icon" xmlns="http://www.w3.org/2000/svg"><path d="M2.728 1h16.297c.987 0 1.728.74 1.728 1.728v16.544c0 .987-.74 1.728-1.728 1.728H2.728C1.741 21 1 20.26 1 19.272V2.728C1 1.741 1.74 1 2.728 1z"/><path d="M8.867 11.373l-.006-.011-2.09-3.6h8.236l-2.035 3.605-2.083 3.587-2.022-3.582z"/></symbol><symbol viewBox="0 0 23 20" id="type-6-icon" xmlns="http://www.w3.org/2000/svg"><g clip-path="url(#bkclip0)"><path d="M10.844 13.244c.622 1.778 2.4 3.29 3.91 3.29h4.356M.889 2.311l3.11-.089c1.69-.089 3.556 1.511 4.267 3.467l.445 1.244M10.4 8.089l.444-1.333c.622-1.778 2.4-3.29 3.911-3.29h4.355M9.333 11.2L10.4 8.089m-9.511 9.6l3.11.089c1.69.089 3.556-1.511 4.267-3.467L9.333 11.2"/><path fill-rule="evenodd" clip-rule="evenodd" d="M22.488 16.533l-2.4 1.778-2.4 1.778v-6.933l2.4 1.777 2.4 1.6zm0-13.066l-2.4-1.778L17.779 0v6.933l2.4-1.777 2.31-1.69z"/></g><defs><clipPath id="bkclip0"><path d="M0 0h22.489v20H0z"/></clipPath></defs></symbol><symbol viewBox="0 0 21 25" id="type-7-icon" xmlns="http://www.w3.org/2000/svg"><path d="M7.78 21.441c1.546 1.804 3.865 1.546 5.24 1.546 3.435 0 6.183-2.92 6.183-5.926m-.086-1.631V7.011c0-.773-.687-1.374-1.546-1.374s-1.546.601-1.546 1.374v5.84m3.092 3.179v-.6m0 1.63v-1.03"/><path d="M16.111 13.11V4.092c0-.773-.687-1.374-1.546-1.374-.858 0-1.546.601-1.546 1.374l-.257 7.472"/><path d="M12.848 11.564v-9.19c0-.773-.687-1.374-1.46-1.374-.86 0-1.546.601-1.546 1.374v8.76m-.001.43v-6.7c0-.772-.687-1.373-1.546-1.373s-1.546.6-1.546 1.374V6.84m.086 0l.172 8.675m-.086 0l-3.264-3.607c-.6-.601-1.46-.601-2.147-.086-.601.515-.687 1.374-.172 1.975l6.27 7.558"/></symbol><symbol viewBox="0 0 19 22" id="type-8-icon" xmlns="http://www.w3.org/2000/svg"><g clip-path="url(#bmclip0)"><path d="M2.436.786h10.607l4.322 4.321v14.536c0 .864-.707 1.571-1.65 1.571H2.358a1.576 1.576 0 01-1.572-1.571V2.357c0-.864.707-1.571 1.65-1.571z"/><path d="M16.893 5.657h-3.142c-.943 0-1.65-.707-1.65-1.571v-2.75"/></g><defs><clipPath id="bmclip0"><path d="M0 0h18.15v22H0z"/></clipPath></defs></symbol><symbol viewBox="0 0 22 22" id="type-9-icon" xmlns="http://www.w3.org/2000/svg"><path d="M7.796 12.392L20.482 1 9.997 14.786"/><path d="M6.566 14.851l1.23-2.46 2.2 2.46-2.459.971m-3.495-.453c.712-.777 1.553-.777 2.33-.065.777.712 1.23 1.748.583 2.59C6.243 18.67 1 21 1 21s2.395-4.79 3.042-5.631z"/></symbol><symbol fill="none" viewBox="0 0 30 30" id="user-icon" xmlns="http://www.w3.org/2000/svg"><circle cx="15" cy="15" r="15" fill="#EDEEF0"/><path stroke="#6B768B" stroke-linecap="round" stroke-linejoin="round" stroke-width="2" d="M11.248 11.151c0-1.816 1.47-3.286 3.373-3.286 1.903 0 3.287 1.47 3.287 3.286 0 1.817-1.47 3.373-3.287 3.373-1.816 0-3.373-1.47-3.373-3.373zm8.044 10.984H9.865v-3.46c0-1.643 1.383-3.026 3.027-3.026h3.373c1.643 0 3.027 1.383 3.027 3.027v3.46z"/></symbol><symbol fill="none" viewBox="0 0 30 30" id="user-selected-icon" xmlns="http://www.w3.org/2000/svg"><circle cx="15" cy="15" r="15" fill="#EBAE28"/><path stroke="#fff" stroke-linecap="round" stroke-linejoin="round" stroke-width="2" d="M11.248 11.151c0-1.816 1.47-3.286 3.373-3.286 1.903 0 3.287 1.47 3.287 3.286 0 1.817-1.47 3.373-3.287 3.373-1.816 0-3.373-1.47-3.373-3.373zm8.044 10.984H9.865v-3.46c0-1.643 1.383-3.026 3.027-3.026h3.373c1.643 0 3.027 1.383 3.027 3.027v3.46z"/></symbol></svg>