<?xml version="1.0" encoding="utf-8"?><svg xmlns="http://www.w3.org/2000/svg" xmlns:xlink="http://www.w3.org/1999/xlink"><symbol fill="none" viewBox="0 0 30 30" id="backup-icon" xmlns="http://www.w3.org/2000/svg"><circle cx="15" cy="15" r="15" fill="#EDEEF0"/><path stroke="#6B768B" stroke-linecap="round" stroke-linejoin="round" stroke-width="2" d="M8.1 13.8c.3-2.2 1.5-4.1 3.2-5.3m0 0C12.6 7.6 14.2 7 16 7c4.4 0 8 3.6 8 8s-3.6 8-8 8c-3.2 0-5.9-1.9-7.2-4.6"/><path fill="#6B768B" fill-rule="evenodd" d="M7.1 16.6L6.6 14 6 11.5l2.5.8 2.5.8-1.9 1.7-2 1.8z" clip-rule="evenodd"/></symbol><symbol fill="none" viewBox="0 0 30 30" id="backup-selected-icon" xmlns="http://www.w3.org/2000/svg"><circle cx="15" cy="15" r="15" fill="#EBAE28"/><path stroke="#fff" stroke-linecap="round" stroke-linejoin="round" stroke-width="2" d="M8.1 13.8c.3-2.2 1.5-4.1 3.2-5.3m0 0C12.6 7.6 14.2 7 16 7c4.4 0 8 3.6 8 8s-3.6 8-8 8c-3.2 0-5.9-1.9-7.2-4.6"/><path fill="#fff" fill-rule="evenodd" d="M7.1 16.6L6.6 14 6 11.5l2.5.8 2.5.8-1.9 1.7-2 1.8z" clip-rule="evenodd"/></symbol><symbol fill="none" viewBox="0 0 30 30" id="book-icon" xmlns="http://www.w3.org/2000/svg"><circle cx="15" cy="15" r="15" fill="#EDEEF0"/><g stroke="#6B768B" stroke-linecap="round" stroke-linejoin="round" stroke-width="2" clip-path="url(#acclip0)"><path d="M20.822 7.889V22.11H12.29c-1.333 0-2.4-.978-2.4-2.133v-9.956c0-1.155 1.067-2.133 2.4-2.133h8.533z"/><path d="M9.889 19.889c0-1.156.978-2.133 2.133-2.133h8.8m-7.911-9.6v9.155"/></g><defs><clipPath id="acclip0"><path fill="#fff" d="M0 0h12.711v16H0z" transform="translate(9 7)"/></clipPath></defs></symbol><symbol fill="none" viewBox="0 0 30 30" id="book-selected-icon" xmlns="http://www.w3.org/2000/svg"><circle cx="15" cy="15" r="15" fill="#EBAE28"/><g stroke="#fff" stroke-linecap="round" stroke-linejoin="round" stroke-width="2" clip-path="url(#adclip0)"><path d="M20.822 7.889V22.11H12.29c-1.333 0-2.4-.978-2.4-2.133v-9.956c0-1.155 1.067-2.133 2.4-2.133h8.533z"/><path d="M9.889 19.889c0-1.156.978-2.133 2.133-2.133h8.8m-7.911-9.6v9.155"/></g><defs><clipPath id="adclip0"><path fill="#fff" d="M0 0h12.711v16H0z" transform="translate(9 7)"/></clipPath></defs></symbol><symbol fill="none" viewBox="0 0 30 30" id="callback-icon" xmlns="http://www.w3.org/2000/svg"><circle cx="15" cy="15" r="15" fill="#EDEEF0"/><g clip-path="url(#aeclip0)"><path stroke="#6B768B" stroke-linecap="round" stroke-linejoin="round" stroke-width="2" d="M17.2 16.7h-3.4m-3.9 0c-2.2 0-2.9-2.3-2.9-3.3v-2.2C7 9.5 8.5 8 10.3 8h6.9c1.8 0 3.3 1.5 3.3 3.2v2.2c0 1.8-1.5 3.2-3.3 3.2m-7.3.1l2 2.9 1.8-2.9"/><path fill="#6B768B" fill-rule="evenodd" d="M9.2 12.3c0-.7.6-1.3 1.3-1.3.7 0 1.4.6 1.4 1.3 0 .7-.6 1.3-1.4 1.3-.8 0-1.3-.5-1.3-1.3zm3.2 0c0-.7.6-1.3 1.3-1.3.8 0 1.4.6 1.4 1.3 0 .7-.6 1.3-1.4 1.3-.7.1-1.3-.5-1.3-1.3zm3.2 0c0-.7.6-1.3 1.4-1.3.8 0 1.4.6 1.4 1.3 0 .7-.6 1.3-1.4 1.3-.8.1-1.4-.5-1.4-1.3z" clip-rule="evenodd"/><path stroke="#6B768B" stroke-linecap="round" stroke-linejoin="round" stroke-width="2" d="M20.1 19.2c2.2 0 2.9-2.3 2.9-3.2v-2.2m-2.9 5.4l-2 2.9-1.8-2.9h-1.5"/></g><defs><clipPath id="aeclip0"><path fill="#fff" d="M0 0h18v16.1H0z" transform="translate(6 7)"/></clipPath></defs></symbol><symbol fill="none" viewBox="0 0 30 30" id="callback-selected-icon" xmlns="http://www.w3.org/2000/svg"><circle cx="15" cy="15" r="15" fill="#EBAE28"/><g clip-path="url(#afclip0)"><path stroke="#fff" stroke-linecap="round" stroke-linejoin="round" stroke-width="2" d="M17.2 16.7h-3.4m-3.9 0c-2.2 0-2.9-2.3-2.9-3.3v-2.2C7 9.5 8.5 8 10.3 8h6.9c1.8 0 3.3 1.5 3.3 3.2v2.2c0 1.8-1.5 3.2-3.3 3.2m-7.3.1l2 2.9 1.8-2.9"/><path fill="#fff" fill-rule="evenodd" d="M9.2 12.3c0-.7.6-1.3 1.3-1.3.7 0 1.4.6 1.4 1.3 0 .7-.6 1.3-1.4 1.3-.8 0-1.3-.5-1.3-1.3zm3.2 0c0-.7.6-1.3 1.3-1.3.8 0 1.4.6 1.4 1.3 0 .7-.6 1.3-1.4 1.3-.7.1-1.3-.5-1.3-1.3zm3.2 0c0-.7.6-1.3 1.4-1.3.8 0 1.4.6 1.4 1.3 0 .7-.6 1.3-1.4 1.3-.8.1-1.4-.5-1.4-1.3z" clip-rule="evenodd"/><path stroke="#fff" stroke-linecap="round" stroke-linejoin="round" stroke-width="2" d="M20.1 19.2c2.2 0 2.9-2.3 2.9-3.2v-2.2m-2.9 5.4l-2 2.9-1.8-2.9h-1.5"/></g><defs><clipPath id="afclip0"><path fill="#fff" d="M0 0h18v16.1H0z" transform="translate(6 7)"/></clipPath></defs></symbol><symbol fill="none" viewBox="0 0 30 30" id="check-icon" xmlns="http://www.w3.org/2000/svg"><circle cx="15" cy="15" r="15" fill="#EDEEF0"/><g stroke="#6B768B" stroke-linecap="round" stroke-linejoin="round" stroke-width="2" clip-path="url(#agclip0)"><path d="M8.778 8.778h12.444v12.444H8.778V8.778z"/><path d="M11.578 15.233l2.955 2.878 4.356-7.155"/></g><defs><clipPath id="agclip0"><path fill="#fff" d="M0 0h14v14H0z" transform="translate(8 8)"/></clipPath></defs></symbol><symbol fill="none" viewBox="0 0 30 30" id="check-selected-icon" xmlns="http://www.w3.org/2000/svg"><circle cx="15" cy="15" r="15" fill="#EBAE28"/><g stroke="#fff" stroke-linecap="round" stroke-linejoin="round" stroke-width="2" clip-path="url(#ahclip0)"><path d="M8.778 8.778h12.444v12.444H8.778V8.778z"/><path d="M11.578 15.233l2.955 2.878 4.356-7.155"/></g><defs><clipPath id="ahclip0"><path fill="#fff" d="M0 0h14v14H0z" transform="translate(8 8)"/></clipPath></defs></symbol><symbol fill="none" viewBox="0 0 12 6" id="chevron-down-icon" xmlns="http://www.w3.org/2000/svg"><path stroke="#0F2345" stroke-linecap="round" stroke-linejoin="round" stroke-width="2" d="M11 1L6 5 1 1"/></symbol><symbol viewBox="0 0 12 12" id="close-icon" xmlns="http://www.w3.org/2000/svg"><path fill="#7481EB" fill-rule="evenodd" d="M1.707.293L5.95 4.535 10.192.293a1 1 0 011.32-.083l.095.083a1 1 0 010 1.414L7.364 5.95l4.243 4.243c.39.39.39 1.024 0 1.415-.39.39-1.024.39-1.415 0L5.95 7.364l-4.242 4.243a1 1 0 01-1.32.083l-.094-.083a1.002 1.002 0 010-1.415L4.535 5.95.293 1.707A1 1 0 011.707.293z"/></symbol><symbol fill="none" viewBox="0 0 30 30" id="display-icon" xmlns="http://www.w3.org/2000/svg"><circle cx="15" cy="15" r="15" fill="#EDEEF0"/><g stroke="#6B768B" stroke-linecap="round" stroke-linejoin="round" stroke-width="2" clip-path="url(#akclip0)"><path d="M6.976 7.976h15.61v9.56H6.975v-9.56zm9.463 10.146l1.463 3.805h-6.244l1.171-3.805m-3.317 3.902h10.44m-7.513-10.731h7.22m-7.22 2.927h7.22"/></g><defs><clipPath id="akclip0"><path fill="#fff" d="M0 0h17.561v16H0z" transform="translate(6 7)"/></clipPath></defs></symbol><symbol fill="none" viewBox="0 0 30 30" id="display-selected-icon" xmlns="http://www.w3.org/2000/svg"><circle cx="15" cy="15" r="15" fill="#EBAE28"/><g stroke="#fff" stroke-linecap="round" stroke-linejoin="round" stroke-width="2" clip-path="url(#alclip0)"><path d="M6.976 7.976h15.61v9.56H6.975v-9.56zm9.463 10.146l1.463 3.805h-6.244l1.171-3.805m-3.317 3.902h10.44m-7.513-10.731h7.22m-7.22 2.927h7.22"/></g><defs><clipPath id="alclip0"><path fill="#fff" d="M0 0h17.561v16H0z" transform="translate(6 7)"/></clipPath></defs></symbol><symbol fill="none" viewBox="0 0 30 30" id="filter-icon" xmlns="http://www.w3.org/2000/svg"><circle cx="15" cy="15" r="15" fill="#EDEEF0"/><g clip-path="url(#amclip0)"><path stroke="#6B768B" stroke-linecap="round" stroke-linejoin="round" stroke-width="2" d="M9 10.8h13M9 20.1h13M9 15.2h13"/><path fill="#6B768B" fill-rule="evenodd" d="M11.1 10.8c0-1 .8-1.8 1.8-1.8s1.8.8 1.8 1.8-.8 1.8-1.8 1.8-1.8-.8-1.8-1.8zm0 9.3c0-1 .8-1.8 1.8-1.8s1.8.8 1.8 1.8-.8 1.8-1.8 1.8-1.8-.8-1.8-1.8zm6.8-4.9c0-1 .8-1.8 1.8-1.8s1.8.8 1.8 1.8-.9 1.8-1.8 1.8c-1 0-1.8-.8-1.8-1.8z" clip-rule="evenodd"/></g><defs><clipPath id="amclip0"><path fill="#fff" d="M0 0h18v12.9H0z" transform="translate(6 9)"/></clipPath></defs></symbol><symbol fill="none" viewBox="0 0 30 30" id="filter-selected-icon" xmlns="http://www.w3.org/2000/svg"><circle cx="15" cy="15" r="15" fill="#EBAE28"/><g clip-path="url(#anclip0)"><path stroke="#fff" stroke-linecap="round" stroke-linejoin="round" stroke-width="2" d="M9 10.8h13M9 20.1h13M9 15.2h13"/><path fill="#fff" fill-rule="evenodd" d="M11.1 10.8c0-1 .8-1.8 1.8-1.8s1.8.8 1.8 1.8-.8 1.8-1.8 1.8-1.8-.8-1.8-1.8zm0 9.3c0-1 .8-1.8 1.8-1.8s1.8.8 1.8 1.8-.8 1.8-1.8 1.8-1.8-.8-1.8-1.8zm6.8-4.9c0-1 .8-1.8 1.8-1.8s1.8.8 1.8 1.8-.9 1.8-1.8 1.8c-1 0-1.8-.8-1.8-1.8z" clip-rule="evenodd"/></g><defs><clipPath id="anclip0"><path fill="#fff" d="M0 0h18v12.9H0z" transform="translate(6 9)"/></clipPath></defs></symbol><symbol fill="none" viewBox="0 0 30 30" id="folder-icon" xmlns="http://www.w3.org/2000/svg"><circle cx="15" cy="15" r="15" fill="#EDEEF0"/><path fill="#6B768B" d="M8 20V9h5.533a1 1 0 011 1v2.23H21a1 1 0 011 1V20a1 1 0 01-1 1H9a1 1 0 01-1-1z" stroke="#fff" stroke-width="2"/></symbol><symbol fill="none" viewBox="0 0 30 30" id="folder-selected-icon" xmlns="http://www.w3.org/2000/svg"><circle cx="15" cy="15" r="15" fill="#EBAE28"/><path fill="#fff" d="M8 20V9h5.533a1 1 0 011 1v2.23H21a1 1 0 011 1V20a1 1 0 01-1 1H9a1 1 0 01-1-1z" stroke="#fff" stroke-width="2"/></symbol><symbol viewBox="0 0 10 22" id="lightning-icon" xmlns="http://www.w3.org/2000/svg"><path d="M7.22.804a1 1 0 01.366 1.366L2.74 10.562H9l.059.002a1 1 0 01.855 1.5l-5 8.66a1 1 0 11-1.732-1l4.135-7.162H1a1 1 0 01-.727-1.687c.02-.06.047-.12.08-.179l5.5-9.526A1 1 0 017.22.804z" fill="#FE7D8B" fill-rule="evenodd"/></symbol><symbol fill="none" viewBox="0 0 30 30" id="list-icon" xmlns="http://www.w3.org/2000/svg"><circle cx="15" cy="15" r="15" fill="#EDEEF0"/><g stroke="#6B768B" stroke-linecap="round" stroke-linejoin="round" stroke-width="2" clip-path="url(#arclip0)"><path d="M9 7.889h11.1V22.11H9V7.89zm2.8 3.555h5.4M11.8 15h5.4m-5.4 3.644h5.4"/></g><defs><clipPath id="arclip0"><path fill="#fff" d="M0 0h13.1v16H0z" transform="translate(8 7)"/></clipPath></defs></symbol><symbol fill="none" viewBox="0 0 30 30" id="list-selected-icon" xmlns="http://www.w3.org/2000/svg"><circle cx="15" cy="15" r="15" fill="#EBAE28"/><g stroke="#fff" stroke-linecap="round" stroke-linejoin="round" stroke-width="2" clip-path="url(#asclip0)"><path d="M9 7.889h11.1V22.11H9V7.89zm2.8 3.555h5.4M11.8 15h5.4m-5.4 3.644h5.4"/></g><defs><clipPath id="asclip0"><path fill="#fff" d="M0 0h13.1v16H0z" transform="translate(8 7)"/></clipPath></defs></symbol><symbol fill="none" viewBox="0 0 30 30" id="olympiad-icon" xmlns="http://www.w3.org/2000/svg"><circle cx="15" cy="15" r="15" fill="#EDEEF0"/><g stroke="#6B768B" stroke-linecap="round" stroke-linejoin="round" stroke-width="2" clip-path="url(#atclip0)"><path d="M10.733 7.889h8.356l-1.067 8.8C17.844 18.022 16.778 19 15.533 19h-1.155c-1.245 0-2.311-1.067-2.49-2.311l-1.155-8.8zM16.778 19l1.155 3.111h-5.689L13.222 19m5.867-9.422c1.956 0 3.111 1.422 2.756 3.11-.356 1.512-1.867 3.734-3.378 3.556m-7.734-6.666c-1.955 0-3.2 1.333-2.755 3.022.355 1.511 1.955 3.733 3.466 3.556"/></g><defs><clipPath id="atclip0"><path fill="#fff" d="M0 0h15.822v16H0z" transform="translate(7 7)"/></clipPath></defs></symbol><symbol fill="none" viewBox="0 0 30 30" id="olympiad-selected-icon" xmlns="http://www.w3.org/2000/svg"><circle cx="15" cy="15" r="15" fill="#EBAE28"/><g stroke="#fff" stroke-linecap="round" stroke-linejoin="round" stroke-width="2" clip-path="url(#auclip0)"><path d="M10.733 7.889h8.356l-1.067 8.8C17.844 18.022 16.778 19 15.533 19h-1.155c-1.245 0-2.311-1.067-2.49-2.311l-1.155-8.8zM16.778 19l1.155 3.111h-5.689L13.222 19m5.867-9.422c1.956 0 3.111 1.422 2.756 3.11-.356 1.512-1.867 3.734-3.378 3.556m-7.734-6.666c-1.955 0-3.2 1.333-2.755 3.022.355 1.511 1.955 3.733 3.466 3.556"/></g><defs><clipPath id="auclip0"><path fill="#fff" d="M0 0h15.822v16H0z" transform="translate(7 7)"/></clipPath></defs></symbol><symbol fill="none" viewBox="0 0 20 17" id="sidebar-icon" xmlns="http://www.w3.org/2000/svg"><path fill="#0F2345" fill-rule="evenodd" d="M14 1.5A1.5 1.5 0 0012.5 0h-11a1.5 1.5 0 000 3h11A1.5 1.5 0 0014 1.5zm6 7A1.5 1.5 0 0018.5 7h-17a1.5 1.5 0 100 3h17A1.5 1.5 0 0020 8.5zM5.5 14a1.5 1.5 0 010 3h-4a1.5 1.5 0 010-3h4z" clip-rule="evenodd"/></symbol><symbol fill="none" viewBox="0 0 30 30" id="statistics-icon" xmlns="http://www.w3.org/2000/svg"><circle cx="15" cy="15" r="15" fill="#EDEEF0"/><g clip-path="url(#awclip0)"><path stroke="#6B768B" stroke-linecap="round" stroke-linejoin="round" stroke-width="2" d="M9 21.1l3.9-6.4 3.7 2.8 4.4-7.2"/><path fill="#6B768B" fill-rule="evenodd" d="M22.9 7l-.1 2.9-.1 2.9-2.5-1.5-2.3-1.5 2.5-1.4L22.9 7z" clip-rule="evenodd"/></g><defs><clipPath id="awclip0"><path fill="#fff" d="M0 0h14.9v15.1H0z" transform="translate(8 7)"/></clipPath></defs></symbol><symbol fill="none" viewBox="0 0 30 30" id="statistics-selected-icon" xmlns="http://www.w3.org/2000/svg"><circle cx="15" cy="15" r="15" fill="#EBAE28"/><g clip-path="url(#axclip0)"><path stroke="#fff" stroke-linecap="round" stroke-linejoin="round" stroke-width="2" d="M9 21.1l3.9-6.4 3.7 2.8 4.4-7.2"/><path fill="#fff" fill-rule="evenodd" d="M22.9 7l-.1 2.9-.1 2.9-2.5-1.5-2.3-1.5 2.5-1.4L22.9 7z" clip-rule="evenodd"/></g><defs><clipPath id="axclip0"><path fill="#fff" d="M0 0h14.9v15.1H0z" transform="translate(8 7)"/></clipPath></defs></symbol><symbol fill="none" viewBox="0 0 30 30" id="success-icon" xmlns="http://www.w3.org/2000/svg"><circle cx="15" cy="15" r="15" fill="#EDEEF0"/><g stroke="#6B768B" stroke-linecap="round" stroke-linejoin="round" stroke-width="2" clip-path="url(#ayclip0)"><path d="M7.92 15c0-3.862 3.126-7.08 7.08-7.08s7.08 3.218 7.08 7.08c0 3.954-3.218 7.08-7.08 7.08-3.954 0-7.08-3.126-7.08-7.08z"/><path d="M11.782 15.92l2.482 1.93 4.23-5.425"/></g><defs><clipPath id="ayclip0"><path fill="#fff" d="M0 0h16v16H0z" transform="translate(7 7)"/></clipPath></defs></symbol><symbol fill="none" viewBox="0 0 30 30" id="success-selected-icon" xmlns="http://www.w3.org/2000/svg"><circle cx="15" cy="15" r="15" fill="#EBAE28"/><g stroke="#fff" stroke-linecap="round" stroke-linejoin="round" stroke-width="2" clip-path="url(#azclip0)"><path d="M7.92 15c0-3.862 3.126-7.08 7.08-7.08s7.08 3.218 7.08 7.08c0 3.954-3.218 7.08-7.08 7.08-3.954 0-7.08-3.126-7.08-7.08z"/><path d="M11.782 15.92l2.482 1.93 4.23-5.425"/></g><defs><clipPath id="azclip0"><path fill="#fff" d="M0 0h16v16H0z" transform="translate(7 7)"/></clipPath></defs></symbol><symbol fill="none" viewBox="0 0 30 30" id="tasks-icon" xmlns="http://www.w3.org/2000/svg"><circle cx="15" cy="15" r="15" fill="#EDEEF0"/><path stroke="#6B768B" stroke-linecap="round" stroke-linejoin="round" stroke-width="2" d="M11.474 19.087H9V8h7.932v.732"/><path stroke="#6B768B" stroke-linecap="round" stroke-linejoin="round" stroke-width="2" d="M13.629 10.914h7.932V22h-7.932V10.914z" clip-rule="evenodd"/><path stroke="#6B768B" stroke-linecap="round" stroke-linejoin="round" stroke-width="2" d="M15.892 13.72h3.37m-3.37 2.737h3.37m-3.37 2.63h3.37"/></symbol><symbol fill="none" viewBox="0 0 30 30" id="tasks-selected-icon" xmlns="http://www.w3.org/2000/svg"><circle cx="15" cy="15" r="15" fill="#EBAE28"/><path stroke="#fff" stroke-linecap="round" stroke-linejoin="round" stroke-width="2" d="M11.474 19.087H9V8h7.932v.732"/><path stroke="#fff" stroke-linecap="round" stroke-linejoin="round" stroke-width="2" d="M13.629 10.914h7.932V22h-7.932V10.914z" clip-rule="evenodd"/><path stroke="#fff" stroke-linecap="round" stroke-linejoin="round" stroke-width="2" d="M15.892 13.72h3.37m-3.37 2.737h3.37m-3.37 2.63h3.37"/></symbol><symbol viewBox="0 0 11 9" id="tick-icon" xmlns="http://www.w3.org/2000/svg"><path fill="none" stroke="#FFF" stroke-linecap="round" stroke-linejoin="round" stroke-width="2" d="M1 4.675L3.948 8 10 1"/></symbol><symbol fill="none" viewBox="0 0 30 30" id="user-icon" xmlns="http://www.w3.org/2000/svg"><circle cx="15" cy="15" r="15" fill="#EDEEF0"/><path stroke="#6B768B" stroke-linecap="round" stroke-linejoin="round" stroke-width="2" d="M11.248 11.151c0-1.816 1.47-3.286 3.373-3.286 1.903 0 3.287 1.47 3.287 3.286 0 1.817-1.47 3.373-3.287 3.373-1.816 0-3.373-1.47-3.373-3.373zm8.044 10.984H9.865v-3.46c0-1.643 1.383-3.026 3.027-3.026h3.373c1.643 0 3.027 1.383 3.027 3.027v3.46z"/></symbol><symbol fill="none" viewBox="0 0 30 30" id="user-selected-icon" xmlns="http://www.w3.org/2000/svg"><circle cx="15" cy="15" r="15" fill="#EBAE28"/><path stroke="#fff" stroke-linecap="round" stroke-linejoin="round" stroke-width="2" d="M11.248 11.151c0-1.816 1.47-3.286 3.373-3.286 1.903 0 3.287 1.47 3.287 3.286 0 1.817-1.47 3.373-3.287 3.373-1.816 0-3.373-1.47-3.373-3.373zm8.044 10.984H9.865v-3.46c0-1.643 1.383-3.026 3.027-3.026h3.373c1.643 0 3.027 1.383 3.027 3.027v3.46z"/></symbol></svg>