<svg xmlns="http://www.w3.org/2000/svg" width="20" height="20">
  <path fill="#7481EB" fill-rule="nonzero" d="M2.298 12.309l1.477-1.477 6.648-6.647a3.133 3.133 0 014.429 4.431l-6.647 6.648a.695.695 0 11-.984-.984l6.647-6.65a1.74 1.74 0 00-2.462-2.46l-6.648 6.645-1.477 1.477a3.135 3.135 0 004.433 4.432l1.23-1.232L15.837 9.6l.493-.492a4.526 4.526 0 00-6.399-6.4l-7.385 7.385a.696.696 0 01-.985-.984l7.385-7.385a5.918 5.918 0 018.37 8.37L9.93 17.478l-1.232 1.231a4.526 4.526 0 01-6.399-6.4z"/>
</svg>

