<svg xmlns="http://www.w3.org/2000/svg" width="19" height="24" viewBox="0 0 19 24">
    <g fill="none" fill-rule="evenodd">
        <g fill="#7481EB" fill-rule="nonzero">
            <g>
                <path d="M12.163 21.105v.019c0 1.57-1.272 2.841-2.841 2.841-1.57 0-2.842-1.272-2.842-2.841v-.019h5.683zM9.322 0c.705 0 1.277.572 1.277 1.277v1.444c2.987.593 5.238 3.228 5.238 6.389v4.687l2.557 3.756c.27.396.298.908.074 1.331-.224.423-.663.688-1.142.688H1.318c-.48 0-.919-.265-1.142-.688-.224-.423-.196-.935.074-1.33l2.557-3.757V9.11c0-3.16 2.251-5.795 5.237-6.39V1.278C8.044.572 8.616 0 9.322 0z" transform="translate(-221 -13) translate(221 13)"/>
            </g>
        </g>
    </g>
</svg>
