<svg xmlns="http://www.w3.org/2000/svg" width="30" height="30" fill="none" viewBox="0 0 30 30">
  <circle cx="15" cy="15" r="15" fill="#EDEEF0"/>
  <g clip-path="url(#clip0)">
    <path stroke="#6B768B" stroke-linecap="round" stroke-linejoin="round" stroke-width="2" d="M17.2 16.7h-3.4M9.9 16.7c-2.2 0-2.9-2.3-2.9-3.3v-2.2C7 9.5 8.5 8 10.3 8h6.9c1.8 0 3.3 1.5 3.3 3.2v2.2c0 1.8-1.5 3.2-3.3 3.2M9.9 16.7l2 2.9 1.8-2.9"/>
    <path fill="#6B768B" fill-rule="evenodd" d="M9.2 12.3c0-.7.6-1.3 1.3-1.3.7 0 1.4.6 1.4 1.3 0 .7-.6 1.3-1.4 1.3-.8 0-1.3-.5-1.3-1.3zM12.4 12.3c0-.7.6-1.3 1.3-1.3.8 0 1.4.6 1.4 1.3 0 .7-.6 1.3-1.4 1.3-.7.1-1.3-.5-1.3-1.3zM15.6 12.3c0-.7.6-1.3 1.4-1.3.8 0 1.4.6 1.4 1.3 0 .7-.6 1.3-1.4 1.3-.8.1-1.4-.5-1.4-1.3z" clip-rule="evenodd"/>
    <path stroke="#6B768B" stroke-linecap="round" stroke-linejoin="round" stroke-width="2" d="M20.1 19.2c2.2 0 2.9-2.3 2.9-3.2v-2.2M20.1 19.2l-2 2.9-1.8-2.9h-1.5"/>
  </g>
  <defs>
    <clipPath id="clip0">
      <path fill="#fff" d="M0 0h18v16.1H0z" transform="translate(6 7)"/>
    </clipPath>
  </defs>
</svg>