<svg width="22" height="24" viewBox="0 0 22 24" xmlns="http://www.w3.org/2000/svg">
    <path d="M11 1C5.47752 1 1 5.28017 1 10.5601C1 13.5777 2.46562 16.2641 4.75 18.0163V22.8517L9.13062 19.9474C9.73689 20.0567 10.3606 20.1202 11 20.1202C16.5231 20.1202 21 15.84 21 10.5601C21 5.28017 16.5231 1 11 1ZM11 18.7545C10.27 18.7545 9.565 18.6616 8.88748 18.5039L5.94497 20.4363L5.98435 17.2692C3.72876 15.7867 2.25 13.3366 2.25 10.5601C2.25 6.03477 6.16748 2.36573 11 2.36573C15.8325 2.36573 19.75 6.03477 19.75 10.5601C19.75 15.0854 15.8325 18.7545 11 18.7545Z" />
</svg>
