<svg xmlns="http://www.w3.org/2000/svg" width="30" height="30" fill="none" viewBox="0 0 30 30">
  <circle cx="15" cy="15" r="15" fill="#EBAE28"/>
  <g clip-path="url(#clip0)">
    <path stroke="#fff" stroke-linecap="round" stroke-linejoin="round" stroke-width="2" d="M9 10.8h13M9 20.1h13M9 15.2h13"/>
    <path fill="#fff" fill-rule="evenodd" d="M11.1 10.8c0-1 .8-1.8 1.8-1.8s1.8.8 1.8 1.8-.8 1.8-1.8 1.8-1.8-.8-1.8-1.8zM11.1 20.1c0-1 .8-1.8 1.8-1.8s1.8.8 1.8 1.8-.8 1.8-1.8 1.8-1.8-.8-1.8-1.8zM17.9 15.2c0-1 .8-1.8 1.8-1.8s1.8.8 1.8 1.8-.9 1.8-1.8 1.8c-1 0-1.8-.8-1.8-1.8z" clip-rule="evenodd"/>
  </g>
  <defs>
    <clipPath id="clip0">
      <path fill="#fff" d="M0 0h18v12.9H0z" transform="translate(6 9)"/>
    </clipPath>
  </defs>
</svg>