<svg width="10px" height="22px" viewBox="0 0 10 22" version="1.1" xmlns="http://www.w3.org/2000/svg" xmlns:xlink="http://www.w3.org/1999/xlink">
    <g id="Design" stroke="none" stroke-width="1" fill="none" fill-rule="evenodd">
        <g id="032" transform="translate(-304.000000, -389.000000)">
            <path d="M311.219918,389.803848 C311.698211,390.07999 311.862086,390.69158 311.585943,391.169873 L306.74,399.561706 L313,399.562178 L313.058641,399.563843 C313.225166,399.565447 313.393582,399.608734 313.548089,399.697939 C314.026381,399.974081 314.190256,400.585671 313.914114,401.063964 L308.914114,409.724218 C308.637972,410.202511 308.026381,410.366386 307.548089,410.090243 C307.069796,409.814101 306.905921,409.202511 307.182063,408.724218 L311.317,401.561706 L305,401.562178 C304.447715,401.562178 304,401.114463 304,400.562178 C304,400.296138 304.103889,400.054363 304.273311,399.875208 C304.2932,399.814536 304.320288,399.754357 304.353893,399.696152 L309.853893,390.169873 C310.130035,389.69158 310.741625,389.527705 311.219918,389.803848 Z" id="Combined-Shape" fill="#FE7D8B"></path>
        </g>
    </g>
</svg>


