<svg xmlns="http://www.w3.org/2000/svg" width="20" height="20" fill="none" viewBox="0 0 20 20">
  <path fill-rule="evenodd" d="M16.845 12.14l2.643 2.643a1.745 1.745 0 010 2.47l-1.85 1.85c-.597.597-1.435.897-2.456.897C10.585 20 3.039 13.826.65 7.785c-.946-2.393-.858-4.319.246-5.423l1.85-1.85c.681-.681 1.79-.681 2.47 0L7.86 3.154c.68.681.68 1.79 0 2.47l-1.85 1.85c-.074.074-.108.506.272 1.309.42.885 1.167 1.89 2.106 2.829 2.106 2.105 3.884 2.632 4.138 2.378l1.85-1.85a1.745 1.745 0 012.47 0zm-9.87-8.102L4.334 1.396a.497.497 0 00-.702 0l-.615.615 3.345 3.344.615-.615a.497.497 0 000-.702zm5.7 14.149c-4.282-1.693-9.17-6.58-10.862-10.862-.74-1.872-.752-3.36-.032-4.08l.351-.35 3.345 3.344-.351.351c-2.348 2.348 5.933 10.634 8.284 8.284l.35-.35 3.345 3.344-.35.35c-.72.72-2.208.709-4.08-.031zm5.314-1.203l.615-.615a.496.496 0 000-.702l-2.642-2.643a.496.496 0 00-.702 0l-.615.615 3.344 3.345z" clip-rule="evenodd"/>
  <path d="M11.25 7.875c.482 0 .874.393.874.875a.625.625 0 101.25 0 2.127 2.127 0 00-2.125-2.125.625.625 0 100 1.25zM11.25 4.875a3.88 3.88 0 013.874 3.875.625.625 0 101.25 0 5.13 5.13 0 00-5.124-5.125.625.625 0 100 1.25z"/>
  <path d="M11.25 1.875a6.883 6.883 0 016.875 6.875.625.625 0 101.25 0c0-4.48-3.645-8.125-8.126-8.125a.625.625 0 100 1.25z"/>
</svg>