<svg xmlns="http://www.w3.org/2000/svg" width="28" height="28" viewBox="0 0 28 28">
    <g fill="none" fill-rule="evenodd">
    <rect width="26" height="26" x="1" y="1" stroke="#7481EB" stroke-width="2" rx="13"/>
    <path fill="#7481EB" fill-rule="nonzero" d="M14.92 16.551v-.574c0-.383.081-.692.244-.928.163-.236.55-.581 1.163-1.034.893-.638 1.5-1.212 1.818-1.723.32-.51.479-1.116.479-1.818 0-1.053-.388-1.895-1.163-2.527-.775-.631-1.82-.947-3.134-.947A9.125 9.125 0 009.8 8.196l1.043 2.096c1.225-.625 2.316-.938 3.273-.938.549 0 .976.109 1.283.326.306.217.459.532.459.947 0 .37-.107.705-.32 1.005-.214.3-.656.69-1.326 1.168-.696.51-1.174.992-1.436 1.445-.261.453-.392.985-.392 1.598v.708h2.536zm-1.158 4.9c.523 0 .932-.145 1.225-.435.294-.29.44-.688.44-1.192 0-.523-.145-.925-.435-1.206-.29-.28-.7-.42-1.23-.42-.549 0-.966.136-1.254.41-.287.275-.43.68-.43 1.216 0 .517.146.917.44 1.201.293.284.708.426 1.244.426z"/>
  </g>
</svg>


