<svg width="24" height="24" viewBox="0 0 24 24" xmlns="http://www.w3.org/2000/svg">
    <rect width="24" height="24" rx="7" />
    <path d="M8 9V8.82763C8 8.27682 8.02043 7.71426 8.25121 7.21413C8.71608 6.2067 9.82508 5 12 5C14.1749 5 15.2839 6.2067 15.7488 7.21413C15.9796 7.71426 16 8.27682 16 8.82763V9" stroke="white" stroke-width="2" stroke-linecap="round"/>
    <path d="M8 15V15.1724C8 15.7232 8.02043 16.2857 8.25121 16.7859C8.71608 17.7933 9.82508 19 12 19C14.1749 19 15.2839 17.7933 15.7488 16.7859C15.9796 16.2857 16 15.7232 16 15.1724V15" stroke="white" stroke-width="2" stroke-linecap="round"/>
</svg>
