<svg width="16" height="15" viewBox="0 0 16 15" xmlns="http://www.w3.org/2000/svg">
<path fill-rule="evenodd" clip-rule="evenodd" d="M0.8 0C0.358172 0 0 0.358172 0 0.8C0 1.24183 0.358173 1.6 0.8 1.6H15.2C15.6418 1.6 16 1.24183 16 0.8C16 0.358172 15.6418 0 15.2 0H0.8ZM0 5.04242C0 4.6006 0.358172 4.24242 0.8 4.24242H15.2C15.6418 4.24242 16 4.6006 16 5.04242C16 5.48425 15.6418 5.84242 15.2 5.84242H0.8C0.358173 5.84242 0 5.48425 0 5.04242ZM0.8 8.48485C0.358172 8.48485 0 8.84302 0 9.28485C0 9.72668 0.358173 10.0848 0.8 10.0848H15.2C15.6418 10.0848 16 9.72668 16 9.28485C16 8.84302 15.6418 8.48485 15.2 8.48485H0.8ZM0.8 12.7273C0.358172 12.7273 0 13.0854 0 13.5273C0 13.9691 0.358173 14.3273 0.800001 14.3273H8.97778C9.41961 14.3273 9.77778 13.9691 9.77778 13.5273C9.77778 13.0854 9.4196 12.7273 8.97778 12.7273H0.8Z"/>
</svg>
