<svg xmlns="http://www.w3.org/2000/svg" width="20" height="20" fill="none" viewBox="0 0 20 20">
  <g fill="#fff" clip-path="url(#clip0)">
    <path d="M10.628 20H9.372a1.843 1.843 0 01-1.84-1.841v-.425a8.073 8.073 0 01-1.255-.52l-.3.3a1.841 1.841 0 01-2.605 0l-.887-.887a1.841 1.841 0 010-2.604l.301-.3a8.076 8.076 0 01-.52-1.254H1.84A1.843 1.843 0 010 10.628V9.372c0-1.015.826-1.84 1.841-1.84h.425c.138-.432.312-.852.52-1.255l-.3-.3a1.841 1.841 0 010-2.605l.887-.887a1.841 1.841 0 012.604 0l.3.301a8.082 8.082 0 011.254-.52V1.84C7.531.826 8.357 0 9.372 0h1.256c1.015 0 1.84.826 1.84 1.841v.425c.432.138.852.312 1.255.52l.3-.3a1.841 1.841 0 012.605 0l.887.887c.709.708.73 1.875 0 2.604l-.301.3c.208.403.382.823.52 1.254h.425c1.015 0 1.841.826 1.841 1.841v1.256a1.843 1.843 0 01-1.841 1.84h-.425a8.07 8.07 0 01-.52 1.255l.3.3c.73.729.71 1.896 0 2.605l-.887.887c-.71.71-1.876.728-2.604 0l-.3-.301a8.08 8.08 0 01-1.254.52v.425A1.843 1.843 0 0110.628 20zm-4.155-4.017c.56.331 1.162.581 1.79.743.26.067.44.3.44.568v.865c0 .369.3.67.67.67h1.255c.369 0 .669-.301.669-.67v-.865c0-.268.18-.5.44-.568a6.907 6.907 0 001.79-.743c.23-.136.523-.099.712.09l.613.613a.67.67 0 00.946 0l.888-.887a.67.67 0 000-.947l-.613-.613a.586.586 0 01-.09-.712c.331-.56.581-1.162.743-1.79.067-.26.3-.44.568-.44h.865c.369 0 .67-.3.67-.67V9.373a.67.67 0 00-.67-.669h-.865c-.268 0-.5-.18-.568-.44a6.906 6.906 0 00-.743-1.79.586.586 0 01.09-.712l.613-.613a.669.669 0 000-.946l-.887-.888a.67.67 0 00-.947 0l-.613.613a.586.586 0 01-.712.09 6.907 6.907 0 00-1.79-.743.586.586 0 01-.44-.568v-.865a.67.67 0 00-.67-.67H9.373a.67.67 0 00-.669.67v.865c0 .268-.18.5-.44.568a6.907 6.907 0 00-1.79.743.586.586 0 01-.712-.09l-.613-.613a.669.669 0 00-.946 0l-.888.887a.67.67 0 000 .947l.613.613c.189.189.226.482.09.712a6.905 6.905 0 00-.743 1.79.586.586 0 01-.568.44h-.865a.67.67 0 00-.67.67v1.255c0 .369.301.669.67.669h.865c.268 0 .5.18.568.44.162.628.412 1.23.743 1.79.136.23.099.523-.09.712l-.613.613a.67.67 0 000 .946l.887.888a.67.67 0 00.947 0l.613-.613c.139-.14.429-.257.712-.09z"/>
    <path d="M10 14.352A4.356 4.356 0 015.648 10c0-2.4 1.953-4.352 4.352-4.352 2.4 0 4.352 1.953 4.352 4.352 0 2.4-1.953 4.352-4.352 4.352zm0-7.532A3.183 3.183 0 006.82 10 3.183 3.183 0 0010 13.18 3.183 3.183 0 0013.18 10 3.183 3.183 0 0010 6.82z"/>
  </g>
  <defs>
    <clipPath id="clip0">
      <path fill="#fff" d="M0 0h20v20H0z"/>
    </clipPath>
  </defs>
</svg>