<svg xmlns="http://www.w3.org/2000/svg" width="28" height="28" viewBox="0 0 28 28">
    <g fill="none" fill-rule="evenodd">
        <g fill="#FFF" fill-rule="nonzero">
            <g>
                <g>
                    <path d="M23.549 17.516c-1.012-.999-2.276-.999-3.281 0-.767.76-1.534 1.521-2.288 2.295-.207.212-.38.257-.632.116-.496-.271-1.025-.49-1.502-.787-2.224-1.398-4.086-3.197-5.736-5.22-.819-1.006-1.547-2.082-2.056-3.294-.104-.245-.084-.406.116-.606.767-.741 1.514-1.502 2.268-2.262C11.49 6.7 11.49 5.463 10.432 4.4c-.6-.606-1.199-1.2-1.798-1.805-.62-.619-1.231-1.244-1.857-1.856-1.012-.986-2.275-.986-3.28.006-.774.76-1.515 1.54-2.301 2.288C.467 3.723.1 4.567.022 5.553-.1 7.158.293 8.673.847 10.15c1.135 3.055 2.862 5.769 4.957 8.256 2.83 3.365 6.207 6.027 10.158 7.948 1.78.863 3.623 1.527 5.627 1.637 1.38.077 2.578-.271 3.539-1.347.657-.735 1.398-1.405 2.094-2.108 1.032-1.044 1.038-2.307.013-3.339-1.224-1.23-2.455-2.455-3.686-3.68z" transform="translate(-661 -563) translate(550 259) translate(111 304)"/>
                </g>
            </g>
        </g>
    </g>
</svg>
