<svg xmlns="http://www.w3.org/2000/svg" width="17" height="18" viewBox="0 0 17 18">
    <g fill="#7481EB">
        <path d="M16.07 2.57h-4.5v-.642C11.57.863 10.709 0 9.644 0H7.072C6.007 0 5.144.863 5.144 1.928v.643H.645c-.355 0-.643.287-.643.642 0 .355.288.643.643.643h.699l1.23 13.555c.03.332.309.585.642.584h10.283c.333.001.612-.252.642-.584l1.23-13.555h.698c.355 0 .643-.288.643-.643 0-.355-.288-.642-.643-.642zm-9.64-.642c0-.355.287-.643.642-.643h2.57c.356 0 .643.288.643.643v.643H6.43v-.643zm6.482 14.782h-9.11L2.638 3.856H14.08L12.912 16.71z"/>
        <path d="M6.43 14.739v-.003l-.643-8.998c-.026-.354-.334-.622-.689-.597-.355.026-.622.334-.597.689l.643 8.997c.024.337.305.598.643.597h.046c.354-.024.621-.331.596-.685zM8.357 5.141c-.355 0-.642.288-.642.643v8.998c0 .355.287.642.642.642.355 0 .643-.287.643-.642V5.784c0-.355-.288-.643-.643-.643zM11.616 5.141c-.355-.025-.663.243-.688.597l-.643 8.998c-.026.354.24.662.594.688h.049c.338.001.619-.26.643-.597l.642-8.997c.026-.355-.242-.663-.597-.689z"/>
    </g>
</svg>


