<svg xmlns="http://www.w3.org/2000/svg" width="37" height="28" fill="none" viewBox="0 0 37 28">
  <path stroke-width="2" d="M3.74 25.407V2a1 1 0 011-1h10.115a1 1 0 01.857.486L16.57.97l-.858.515 1.576 2.625a3 3 0 002.572 1.457h12.855a1 1 0 011 1v18.84a1 1 0 01-1 1H4.74a1 1 0 01-1-1z"/>
  <path fill="#fff" stroke-width="2" d="M3.485 25.549L1.316 10.364a1 1 0 01.99-1.142H14.87a1 1 0 01.764.355l1.503 1.779a3 3 0 002.291 1.064h15.2a1 1 0 01.986 1.169l-2.055 11.987a1 1 0 01-.986.831H4.475a1 1 0 01-.99-.858z"/>
</svg>