<svg width="21" height="25" viewBox="0 0 21 25" xmlns="http://www.w3.org/2000/svg">
<path d="M7.78027 21.4413C9.32625 23.245 11.6452 22.9873 13.0194 22.9873C16.4549 22.9873 19.2034 20.0671 19.2034 17.061" stroke-width="2" stroke-linecap="round" stroke-linejoin="round"/>
<path d="M19.1174 15.4291V7.01214C19.1174 6.23915 18.4302 5.63794 17.5714 5.63794C16.7125 5.63794 16.0254 6.23915 16.0254 7.01214V12.8525" stroke-width="2" stroke-linecap="round" stroke-linejoin="round"/>
<path d="M19.1172 16.0304V15.4292" stroke-width="2" stroke-linecap="round" stroke-linejoin="round"/>
<path d="M19.1172 17.0609V16.0303" stroke-width="2" stroke-linecap="round" stroke-linejoin="round"/>
<path d="M16.1113 13.1102V4.09198C16.1113 3.31899 15.4242 2.71777 14.5654 2.71777C13.7065 2.71777 13.0194 3.31899 13.0194 4.09198L12.7617 11.5642" stroke-width="2" stroke-linecap="round" stroke-linejoin="round"/>
<path d="M12.8479 11.5642V2.3742C12.8479 1.60121 12.1608 1 11.3878 1C10.5289 1 9.8418 1.60121 9.8418 2.3742V11.1348" stroke-width="2" stroke-linecap="round" stroke-linejoin="round"/>
<path d="M9.84098 11.5642V4.86493C9.84098 4.09194 9.15388 3.49072 8.295 3.49072C7.43613 3.49072 6.74902 4.09194 6.74902 4.86493V6.84035" stroke-width="2" stroke-linecap="round" stroke-linejoin="round"/>
<path d="M6.83496 6.84033L7.00674 15.515" stroke-width="2" stroke-linecap="round" stroke-linejoin="round"/>
<path d="M6.92108 15.5151L3.65734 11.9078C3.05613 11.3066 2.19725 11.3066 1.51015 11.8219C0.908934 12.3373 0.823046 13.1961 1.33837 13.7974L7.60818 21.3555" stroke-width="2" stroke-linecap="round" stroke-linejoin="round"/>
</svg>
