<svg width="20" height="20" viewBox="0 0 20 20" xmlns="http://www.w3.org/2000/svg">
<path d="M7.85742 2.85712H17.1431" stroke="#0A234A" stroke-width="2" stroke-linecap="round" stroke-linejoin="round"/>
<path d="M7.85742 10H17.1431" stroke="#0A234A" stroke-width="2" stroke-linecap="round" stroke-linejoin="round"/>
<path d="M7.85742 17.1429H17.1431" stroke="#0A234A" stroke-width="2" stroke-linecap="round" stroke-linejoin="round"/>
<path fill-rule="evenodd" clip-rule="evenodd" d="M1.78585 1.21429H0.928711V0H3.21443V5.57143H1.78585V1.21429Z" fill="#0A234A"/>
<path fill-rule="evenodd" clip-rule="evenodd" d="M4.5 12.7857H0L1.35714 11.3571C1.71429 11 2 10.6428 2.21429 10.3571C2.42857 10.0714 2.57143 9.85713 2.64286 9.71427C2.78571 9.49998 2.85714 9.35713 2.92857 9.2857C2.92857 9.14284 3 9.07141 3 8.99998C3 8.92855 3 8.85713 2.92857 8.7857C2.85714 8.64284 2.85714 8.57141 2.78571 8.49998C2.71429 8.42855 2.64286 8.35713 2.57143 8.35713C2.5 8.35713 2.42857 8.2857 2.28571 8.2857C2.07143 8.2857 1.92857 8.35713 1.85714 8.49998C1.71429 8.64284 1.71429 8.7857 1.71429 8.99998C1.71429 9.07141 1.71429 9.14284 1.71429 9.21427H0.142857C0.142857 8.85713 0.214286 8.57141 0.285714 8.35713C0.357143 8.07141 0.571429 7.85713 0.714286 7.64284C0.928571 7.42855 1.14286 7.2857 1.42857 7.21427C1.71429 7.14284 2 7.07141 2.28571 7.07141C2.57143 7.07141 2.85714 7.14284 3.14286 7.21427C3.42857 7.2857 3.64286 7.42855 3.85714 7.64284C4.07143 7.7857 4.21429 7.99998 4.28571 8.2857C4.42857 8.49998 4.42857 8.7857 4.42857 9.07141C4.42857 9.35713 4.35714 9.64284 4.21429 9.92855C4.07143 10.2143 3.85714 10.4286 3.57143 10.7143L2.64286 11.5714H4.42857V12.7857H4.5Z" fill="#0A234A"/>
<path fill-rule="evenodd" clip-rule="evenodd" d="M2 16.4286C2.07143 16.4286 2.07143 16.4286 2.07143 16.4286H2.14286C2.35714 16.4286 2.5 16.3571 2.57143 16.2857C2.71429 16.1429 2.71429 16.0714 2.71429 15.8571C2.71429 15.7143 2.64286 15.5714 2.57143 15.4286C2.5 15.3571 2.35714 15.2857 2.14286 15.2857C2 15.2857 1.85714 15.3571 1.71429 15.4286C1.57143 15.5714 1.57143 15.7143 1.57143 15.8571H0.285714C0.285714 15.5714 0.428571 15.2857 0.5 15.0714C0.642857 14.8571 0.785714 14.6429 0.928571 14.5C1.07143 14.3571 1.28571 14.2143 1.57143 14.1429C1.78571 14.0714 2.07143 14 2.35714 14C2.64286 14 2.85714 14.0714 3.14286 14.1429C3.35714 14.2143 3.57143 14.3571 3.71429 14.5C3.85714 14.6429 4 14.7857 4.07143 15C4.14286 15.2143 4.21429 15.4286 4.21429 15.6429C4.21429 15.9286 4.14286 16.1429 4.07143 16.2857C4 16.4286 3.71429 16.7143 3.57143 16.7857C3.85714 16.8571 4.07143 17 4.21429 17.2857C4.35714 17.5 4.42857 17.7857 4.42857 18.1429C4.42857 18.4286 4.35714 18.6429 4.28571 18.9286C4.14286 19.1429 4 19.3571 3.85714 19.5C3.64286 19.6429 3.42857 19.7857 3.14286 19.8571C2.85714 19.9286 2.57143 20 2.28571 20C1.85714 20 1.5 19.9286 1.14286 19.7143C0.785714 19.5714 0.5 19.2857 0.285714 18.9286C0.214286 18.7857 0.142857 18.5714 0.0714286 18.4286C0.0714286 18.2857 0 18.0714 0 17.9286H1.42857C1.42857 18.2143 1.5 18.3571 1.64286 18.5C1.78571 18.6429 2 18.7143 2.21429 18.7143C2.5 18.7143 2.64286 18.6429 2.78571 18.5C2.92857 18.3571 2.92857 18.2143 2.92857 18C2.92857 17.7857 2.85714 17.5714 2.71429 17.4286C2.57143 17.2857 2.42857 17.2143 2.21429 17.2143C2.14286 17.2143 2.14286 17.2143 2.07143 17.2143C2 17.2143 2 17.2143 1.92857 17.2143V16.4286H2Z" fill="#0A234A"/>
</svg>
