<svg width="36" height="18" viewBox="0 0 36 18" xmlns="http://www.w3.org/2000/svg">
<g clip-path="url(#clip0)">
<path d="M2.2 1H33.6C34.3 1 34.8 1.5 34.8 2.1V15.4C34.8 16 34.3 16.5 33.6 16.5H2.2C1.5 16.5 1 16 1 15.4V2.1C1 1.5 1.5 1 2.2 1Z" stroke-width="2" stroke-linecap="round" stroke-linejoin="round"/>
<path d="M1.40039 10.9L34.6004 10.8" stroke-width="2" stroke-linecap="round" stroke-linejoin="round"/>
<path d="M1.59961 6.09998H33.7996" stroke-width="2" stroke-linecap="round" stroke-linejoin="round"/>
<path d="M7.90039 5.4V1" stroke-width="2" stroke-linecap="round" stroke-linejoin="round"/>
<path d="M13.4004 10.7V6.30005" stroke-width="2" stroke-linecap="round" stroke-linejoin="round"/>
<path d="M7.90039 10.7V6.30005" stroke-width="2" stroke-linecap="round" stroke-linejoin="round"/>
<path d="M18.5996 10.5V6.90002" stroke-width="2" stroke-linecap="round" stroke-linejoin="round"/>
<path d="M23.5 10.5V6.5" stroke-width="2" stroke-linecap="round" stroke-linejoin="round"/>
<path d="M18.5996 6.09995V1.69995" stroke-width="2" stroke-linecap="round" stroke-linejoin="round"/>
<path d="M13.4004 6.09995V1.69995" stroke-width="2" stroke-linecap="round" stroke-linejoin="round"/>
<path d="M29.4004 16.4V12" stroke-width="2" stroke-linecap="round" stroke-linejoin="round"/>
<path d="M29.4004 5.4V1" stroke-width="2" stroke-linecap="round" stroke-linejoin="round"/>
<path d="M29.4004 10.9V6.5" stroke-width="2" stroke-linecap="round" stroke-linejoin="round"/>
<path d="M23.5 6.30005V1.80005" stroke-width="2" stroke-linecap="round" stroke-linejoin="round"/>
<path d="M8.59961 10.9V15.9" stroke-width="2" stroke-linecap="round" stroke-linejoin="round"/>
</g>
<defs>
<clipPath id="clip0">
<rect width="35.8" height="17.4"/>
</clipPath>
</defs>
</svg>
