<svg xmlns="http://www.w3.org/2000/svg" width="18" height="14" viewBox="0 0 18 14">
  <path d="M2.926 6.45a.968.968 0 000 1.364.968.968 0 001.365 0 6.67 6.67 0 019.421 0 .961.961 0 001.362 0 .968.968 0 000-1.365c-3.348-3.351-8.8-3.351-12.148 0z"/>
  <path d="M5.531 9.054a.968.968 0 000 1.364.968.968 0 001.365 0 2.975 2.975 0 014.208 0 .961.961 0 001.361 0 .963.963 0 000-1.36 4.904 4.904 0 00-6.934-.004zM9 13.803a1.284 1.284 0 100-2.568 1.284 1.284 0 000 2.568zM17.719 3.8C12.91-1.004 5.089-1.004.28 3.8a.968.968 0 000 1.365.968.968 0 001.365 0c4.054-4.057 10.654-4.057 14.712 0a.961.961 0 001.36 0 .968.968 0 000-1.365z"/>
</svg>